<svg xmlns="http://www.w3.org/2000/svg" fill="none" stroke-linecap="square" stroke-miterlimit="10" viewBox="0 0 1152 768"><clipPath id="a"><path d="M0 0h1152v768H0V0z"/></clipPath><g clip-path="url(#a)"><path d="M0 0h1152v768H0z"/><path d="M16.01 471.018c0-158.049 131.805-286.173 294.394-286.173 78.078 0 152.958 30.15 208.168 83.818 55.21 53.668 86.226 126.457 86.226 202.355 0 158.05-131.805 286.174-294.394 286.174-162.59 0-294.394-128.125-294.394-286.174z"/><path stroke="#fff" stroke-linecap="butt" stroke-linejoin="round" stroke-width="4" d="M16.01 471.018c0-158.049 131.805-286.173 294.394-286.173 78.078 0 152.958 30.15 208.168 83.818 55.21 53.668 86.226 126.457 86.226 202.355 0 158.05-131.805 286.174-294.394 286.174-162.59 0-294.394-128.125-294.394-286.174z"/><path fill="#fff" d="m175.137 394.781-1.187 3q-1.688-1.234-5.297-1.234-3.406 0-5.453 2.922t-2.047 7.516q0 4.406 2.094 7.14 2.11 2.735 5.437 2.735 3.625 0 5.563-2.579l1.937 2.688q-3.062 3.047-7.875 3.047-5.047 0-7.953-3.64-2.89-3.641-2.89-9.595 0-5.765 3.093-9.578 3.094-3.812 8-3.812 4.203 0 6.578 1.39zm3.596 15.344q0-4.36 2.344-7.031 2.36-2.688 6.187-2.688 4.047 0 6.266 2.579 2.234 2.562 2.234 7.14 0 4.547-2.28 7.188-2.282 2.625-6.22 2.625-4.03 0-6.28-2.657-2.25-2.656-2.25-7.156zm3.516 0q0 7.078 5.015 7.078 2.329 0 3.657-1.89 1.328-1.907 1.328-5.188 0-7-4.985-7-2.28 0-3.656 1.86-1.36 1.859-1.36 5.14zm38.834 9.453v-11.922q0-4.437-3.844-4.437-1.219 0-2.281.75-1.047.734-1.438 1.687v13.922h-3.343v-13.375q0-1.39-1.047-2.187-1.032-.797-2.766-.797-1 0-2.14.781-1.126.766-1.594 1.688v13.89h-3.344V400.75h2.172l1.11 2.188q1.937-2.532 4.843-2.532 4.031 0 5.656 2.5.563-1.062 2.094-1.78 1.531-.72 3.14-.72 2.922 0 4.516 1.735 1.61 1.719 1.61 4.844v12.593h-3.344zm11.43-1.03v8.421h-3.344V400.75h3.343v1.547q1.891-1.89 4.579-1.89 4.015 0 6.25 2.5 2.234 2.484 2.234 7.296 0 4.297-2.25 7.016-2.25 2.719-6.516 2.719-1.187 0-2.562-.422-1.36-.438-1.735-.969zm0-13.735v10.968q.312.47 1.328.907 1.015.422 1.984.422 6.234 0 6.234-7.032 0-3.562-1.484-5.203-1.469-1.656-4.734-1.656-.704 0-1.72.5-1.015.484-1.609 1.094zm32.572 5.672h-13.578q0 3.312 1.812 5.078 1.594 1.547 4.11 1.547 2.875 0 4.78-1.657l1.407 2.407q-.766.765-2.375 1.328-2 .75-4.453.75-3.563 0-6.031-2.422-2.766-2.656-2.766-7.125 0-4.672 2.828-7.485 2.531-2.5 6-2.5 4.031 0 6.313 2.266 2.218 2.172 2.218 5.781 0 1.11-.265 2.032zm-8.11-7.266q-2.234 0-3.75 1.437-1.437 1.375-1.625 3.407h10.422q0-2.016-1.265-3.375-1.391-1.469-3.782-1.469zm13.073.172h-2.172v-2.64h2.172v-3.938l3.343-1.282v5.22h5.172v2.64h-5.172v9.344q0 2.375.797 3.375.813 1 2.578 1 1.282 0 2.657-.641l.5 2.937q-2.078.532-4.563.532-2.234 0-3.781-1.657-1.531-1.671-1.531-4.203v-10.687zm16.523-9.766q.875 0 1.469.61.61.609.61 1.453 0 .86-.61 1.468-.594.61-1.469.61-.844 0-1.453-.61-.594-.609-.594-1.468 0-.86.594-1.453.594-.61 1.453-.61zm-1.828 25.953v-16.015h-2.578v-2.813h5.922v18.828h-3.344zm9.844-16.187h-2.172v-2.64h2.172v-3.938l3.343-1.282v5.22h5.172v2.64h-5.172v9.344q0 2.375.797 3.375.813 1 2.578 1 1.282 0 2.657-.641l.5 2.937q-2.078.532-4.563.532-2.234 0-3.781-1.657-1.531-1.671-1.531-4.203v-10.687zm16.523-9.766q.875 0 1.469.61.61.609.61 1.453 0 .86-.61 1.468-.594.61-1.469.61-.844 0-1.453-.61-.594-.609-.594-1.468 0-.86.594-1.453.594-.61 1.453-.61zm-1.828 25.953v-16.015h-2.578v-2.813h5.922v18.828h-3.344zm15.438.36h-.875l-8.063-19.235h3.656l4.969 13.172 5.078-13.172h3.5l-8.265 19.235zm26.709-9.453H337.85q0 3.312 1.813 5.078 1.594 1.547 4.11 1.547 2.874 0 4.78-1.657l1.407 2.407q-.766.765-2.375 1.328-2 .75-4.453.75-3.563 0-6.032-2.422-2.765-2.656-2.765-7.125 0-4.672 2.828-7.485 2.531-2.5 6-2.5 4.031 0 6.312 2.266 2.22 2.172 2.22 5.781 0 1.11-.266 2.032zm-8.11-7.266q-2.234 0-3.75 1.437-1.437 1.375-1.625 3.407h10.422q0-2.016-1.266-3.375-1.39-1.469-3.78-1.469zm23.463 16.36v-10.954q0-3-.906-4.203-.906-1.203-3.031-1.203-1.141 0-2.391.687-1.25.672-1.906 1.672v14h-3.344V400.75h2.281l1.063 2.422q1.64-2.766 5.39-2.766 6.188 0 6.188 7.516v11.656h-3.344zm23.951-9.094h-13.578q0 3.312 1.813 5.078 1.593 1.547 4.109 1.547 2.875 0 4.781-1.657l1.406 2.407q-.765.765-2.375 1.328-2 .75-4.453.75-3.562 0-6.03-2.422-2.767-2.656-2.767-7.125 0-4.672 2.829-7.485 2.53-2.5 6-2.5 4.03 0 6.312 2.266 2.219 2.172 2.219 5.781 0 1.11-.266 2.032zm-8.11-7.266q-2.234 0-3.75 1.437-1.437 1.375-1.624 3.407h10.422q0-2.016-1.266-3.375-1.39-1.469-3.781-1.469zm10.651 15.234 1.188-3.172q2.781 1.829 4.5 1.829 3.093 0 3.093-2.594 0-1.86-3-3.203-2.296-1.047-3.093-1.594-.797-.547-1.39-1.234-.595-.704-.892-1.485-.28-.781-.28-1.672 0-2.328 1.687-3.625 1.687-1.297 4.406-1.297 2.062 0 5.187 1.297l-.937 3.094q-2-1.578-4-1.578-1.188 0-2.016.562-.812.563-.812 1.422 0 1.813 2.062 2.735l2.391 1.093q2.187 1 3.187 2.282 1.016 1.281 1.016 3.218 0 2.532-1.781 3.97-1.781 1.437-4.922 1.437-2.969 0-5.594-1.485zm14.572 0 1.188-3.172q2.781 1.829 4.5 1.829 3.094 0 3.094-2.594 0-1.86-3-3.203-2.297-1.047-3.094-1.594-.797-.547-1.39-1.234-.594-.704-.891-1.485-.282-.781-.282-1.672 0-2.328 1.688-3.625 1.687-1.297 4.406-1.297 2.063 0 5.188 1.297l-.938 3.094q-2-1.578-4-1.578-1.187 0-2.015.562-.813.563-.813 1.422 0 1.813 2.063 2.735l2.39 1.093q2.188 1 3.188 2.282 1.015 1.281 1.015 3.218 0 2.532-1.78 3.97-1.782 1.437-4.923 1.437-2.969 0-5.594-1.485zm25.418-8.328q0-4.36 2.344-7.031 2.36-2.688 6.188-2.688 4.047 0 6.265 2.579 2.235 2.562 2.235 7.14 0 4.547-2.282 7.188-2.28 2.625-6.218 2.625-4.032 0-6.282-2.657-2.25-2.656-2.25-7.156zm3.516 0q0 7.078 5.016 7.078 2.328 0 3.656-1.89 1.328-1.907 1.328-5.188 0-7-4.984-7-2.282 0-3.657 1.86-1.359 1.859-1.359 5.14zm27.21-14.11q-1.017-.343-1.892-.343-1.53 0-2.53 1.156-.985 1.157-.985 2.938 0 .469.078.984h3.844v2.813h-3.844v16.015h-3.328v-16.015h-2.75v-2.813h2.75q0-3.61 1.765-5.656 1.782-2.063 4.704-2.063 1.453 0 3.125.532l-.938 2.453zm-328.124 40.813h3.516v17.625q0 2.36 1.484 3.891 1.5 1.516 3.969 1.516 2.594 0 4.078-1.47 1.5-1.484 1.5-4.015v-17.547h3.516v17.907q0 3.906-2.438 6.093-2.422 2.188-6.625 2.188-4.328 0-6.672-2.14-2.328-2.141-2.328-6.157v-17.89zm26.922 20.813q1.094 0 1.86.781.78.766.78 1.86 0 1.078-.78 1.874-.766.782-1.86.782-1.078 0-1.86-.782-.765-.796-.765-1.875 0-1.093.766-1.859.78-.781 1.859-.781zm8.484 3.765 1.282-3.234q.984.719 2.453 1.203 1.468.485 2.625.485 2.047 0 3.297-1.125t1.25-2.875q0-1.297-.704-2.407-.687-1.125-3.484-2.437l-2.062-.969q-2.641-1.234-3.688-2.922-1.047-1.687-1.047-4.062 0-2.875 2.031-4.766 2.047-1.906 5.25-1.906 4.266 0 5.938 1.39l-1.031 3.047q-.703-.5-2.157-.968-1.437-.485-2.671-.485-1.782 0-2.813 1.016-1.031 1.015-1.031 2.625 0 .984.36 1.797.374.797 1.03 1.343.672.547 2.704 1.532l2.109 1q2.64 1.25 3.703 2.984 1.063 1.734 1.063 4.406 0 2.891-2.329 4.922-2.328 2.016-6.234 2.016-3.422 0-5.844-1.61zm22.05-3.765q1.093 0 1.858.781.782.766.782 1.86 0 1.078-.782 1.874-.765.782-1.859.782-1.078 0-1.86-.782-.765-.796-.765-1.875 0-1.093.766-1.859.781-.781 1.86-.781zm33.124 4.937-1.781-5.437h-9.578l-1.89 5.437h-3.938l10.453-26.109h.937l9.703 26.11h-3.906zm-6.437-19.359-3.985 11.344h7.64l-3.655-11.344zm13.656 19.36v-25.75h3.515v25.75h-3.515zm18.756-1.126 1.187-3.172q2.781 1.829 4.5 1.829 3.094 0 3.094-2.594 0-1.86-3-3.203-2.297-1.047-3.094-1.594-.797-.547-1.39-1.234-.594-.704-.891-1.485-.281-.781-.281-1.672 0-2.328 1.687-3.625 1.688-1.297 4.406-1.297 2.063 0 5.188 1.297l-.938 3.094q-2-1.578-4-1.578-1.187 0-2.015.562-.813.563-.813 1.422 0 1.813 2.063 2.735l2.39 1.093q2.188 1 3.188 2.282 1.016 1.281 1.016 3.218 0 2.532-1.782 3.97-1.78 1.437-4.922 1.437-2.968 0-5.593-1.485zm31.666-7.968h-13.578q0 3.312 1.812 5.078 1.594 1.547 4.11 1.547 2.874 0 4.78-1.657l1.407 2.407q-.766.765-2.375 1.328-2 .75-4.453.75-3.563 0-6.031-2.422-2.766-2.656-2.766-7.125 0-4.672 2.828-7.485 2.531-2.5 6-2.5 4.031 0 6.313 2.266 2.218 2.172 2.218 5.781 0 1.11-.265 2.032zm-8.11-7.266q-2.234 0-3.75 1.437-1.437 1.375-1.625 3.407h10.422q0-2.016-1.265-3.375-1.391-1.469-3.782-1.469zm33.682 16.36v-11.923q0-4.437-3.844-4.437-1.219 0-2.281.75-1.047.734-1.438 1.687v13.922h-3.343v-13.375q0-1.39-1.047-2.187-1.031-.797-2.766-.797-1 0-2.14.781-1.125.766-1.594 1.688v13.89h-3.344V443.75h2.172l1.11 2.188q1.937-2.532 4.843-2.532 4.031 0 5.656 2.5.563-1.062 2.094-1.78 1.531-.72 3.14-.72 2.923 0 4.516 1.735 1.61 1.719 1.61 4.844v12.593h-3.344zm11.523-25.954q.875 0 1.47.61.609.609.609 1.453 0 .86-.61 1.468-.594.61-1.469.61-.843 0-1.453-.61-.593-.609-.593-1.468 0-.86.593-1.453.594-.61 1.453-.61zm-1.828 25.953v-16.015h-2.578v-2.813h5.922v18.828h-3.344zm22.86-17.297-1.657 2.36q-.5-.516-1.796-.969-1.297-.453-2.547-.453-2.72 0-4.328 1.906-1.594 1.906-1.594 5.219 0 3.312 1.625 5.047 1.64 1.719 4.547 1.719 2.25 0 4.53-1.735l1.33 2.813q-2.688 1.75-6.673 1.75-3.844 0-6.36-2.578-2.515-2.594-2.515-7.016 0-4.5 2.61-7.219 2.609-2.719 7.156-2.719 1.453 0 3.156.61t2.516 1.265zm2.386 7.844q0-4.36 2.344-7.031 2.36-2.688 6.188-2.688 4.047 0 6.265 2.579 2.235 2.562 2.235 7.14 0 4.547-2.282 7.188-2.28 2.625-6.218 2.625-4.032 0-6.282-2.657-2.25-2.656-2.25-7.156zm3.516 0q0 7.078 5.016 7.078 2.328 0 3.656-1.89 1.328-1.907 1.328-5.188 0-7-4.984-7-2.282 0-3.657 1.86-1.359 1.859-1.359 5.14zm28.615 9.453v-10.953q0-3-.906-4.203-.906-1.203-3.031-1.203-1.14 0-2.39.687-1.25.672-1.907 1.672v14h-3.344V443.75h2.281l1.063 2.422q1.64-2.766 5.39-2.766 6.188 0 6.188 7.516v11.656h-3.344zm20.03-.015v-1.39q-1.75 1.733-5.063 1.733-3.531 0-5.734-2.53-2.203-2.532-2.203-6.75 0-4.235 2.53-7.22 2.532-3 6.032-3 2.922 0 4.438 1.36v-8.735h3.343v26.532h-3.343zm0-14.453q-1.266-1.891-3.47-1.891-2.687 0-4.359 2-1.656 2-1.656 5.094 0 6.797 6.188 6.797.797 0 1.906-.5 1.11-.5 1.39-1.063V448.11zm11.275-4.36v12q0 4.36 3.781 4.36 1.656 0 3.031-.938 1.375-.953 1.813-2.203V443.75h3.328v18.828h-3.328v-2.609q-.563 1.11-2.266 2.047-1.687.922-3.312.922-3.094 0-4.735-1.782-1.64-1.78-1.64-5.046v-12.36h3.328zm30.717 1.531-1.657 2.36q-.5-.516-1.796-.969-1.297-.453-2.547-.453-2.719 0-4.328 1.906-1.594 1.906-1.594 5.219 0 3.312 1.625 5.047 1.64 1.719 4.547 1.719 2.25 0 4.531-1.735l1.328 2.813q-2.687 1.75-6.672 1.75-3.844 0-6.36-2.578-2.515-2.594-2.515-7.016 0-4.5 2.61-7.219 2.609-2.719 7.156-2.719 1.453 0 3.156.61t2.516 1.265zm4.808 1.11h-2.172v-2.64h2.172v-3.938l3.344-1.282v5.22h5.172v2.64h-5.172v9.344q0 2.375.797 3.375.812 1 2.578 1 1.281 0 2.656-.641l.5 2.937q-2.078.532-4.562.532-2.235 0-3.781-1.657-1.532-1.671-1.532-4.203v-10.687zm11.852 6.734q0-4.36 2.344-7.031 2.359-2.688 6.187-2.688 4.047 0 6.266 2.579 2.234 2.562 2.234 7.14 0 4.547-2.281 7.188-2.281 2.625-6.219 2.625-4.031 0-6.281-2.657-2.25-2.656-2.25-7.156zm3.516 0q0 7.078 5.015 7.078 2.328 0 3.656-1.89 1.329-1.907 1.329-5.188 0-7-4.985-7-2.281 0-3.656 1.86-1.36 1.859-1.36 5.14zm27.271-6.156q-1.094-.75-2.203-.75-1.781 0-3.11 1.64-1.312 1.626-1.312 3.922v10.797h-3.344V443.75h3.344v3q1.828-3.344 5.422-3.344.906 0 2.594.313l-1.391 3.25zm-343.094 41.312-1.656 2.36q-.5-.516-1.797-.969-1.297-.453-2.547-.453-2.719 0-4.328 1.906-1.594 1.906-1.594 5.219 0 3.312 1.625 5.047 1.641 1.719 4.547 1.719 2.25 0 4.531-1.735l1.329 2.813q-2.688 1.75-6.672 1.75-3.844 0-6.36-2.578-2.515-2.594-2.515-7.016 0-4.5 2.61-7.219 2.608-2.719 7.155-2.719 1.453 0 3.157.61 1.703.61 2.515 1.265zm2.387 7.844q0-4.36 2.344-7.031 2.36-2.688 6.187-2.688 4.047 0 6.266 2.579 2.234 2.562 2.234 7.14 0 4.547-2.281 7.188-2.281 2.625-6.219 2.625-4.031 0-6.281-2.657-2.25-2.656-2.25-7.156zm3.516 0q0 7.078 5.015 7.078 2.328 0 3.656-1.89 1.329-1.907 1.329-5.188 0-7-4.985-7-2.281 0-3.656 1.86-1.36 1.859-1.36 5.14zm38.834 9.453v-11.922q0-4.437-3.844-4.437-1.219 0-2.281.75-1.047.734-1.438 1.687v13.922h-3.344v-13.375q0-1.39-1.047-2.187-1.03-.797-2.765-.797-1 0-2.14.781-1.126.766-1.595 1.688v13.89h-3.343V486.75h2.172l1.109 2.188q1.937-2.532 4.844-2.532 4.031 0 5.656 2.5.562-1.062 2.094-1.78 1.531-.72 3.14-.72 2.922 0 4.516 1.735 1.61 1.719 1.61 4.844v12.593h-3.344zm11.43-1.03v8.42h-3.344V486.75h3.343v1.547q1.89-1.89 4.578-1.89 4.016 0 6.25 2.5 2.235 2.484 2.235 7.296 0 4.297-2.25 7.016-2.25 2.719-6.516 2.719-1.187 0-2.562-.422-1.36-.438-1.735-.969zm0-13.735v10.968q.312.47 1.327.907 1.016.422 1.985.422 6.234 0 6.234-7.032 0-3.562-1.484-5.203-1.469-1.656-4.735-1.656-.703 0-1.718.5-1.016.484-1.61 1.094zm27.353 12.61q-2.016 2.515-6.14 2.515-2.22 0-3.845-1.61-1.625-1.609-1.625-4 0-2.875 2.5-4.843 2.516-1.985 6.391-1.985 1.063 0 2.39.453 0-4.562-4.077-4.562-3.125 0-4.813 1.687l-1.406-2.797q.953-.78 2.625-1.328 1.687-.547 3.219-.547 4.093 0 5.937 1.86 1.86 1.86 1.86 5.922v6.75q0 2.484 1.484 3.297v1.671q-2.047 0-3.063-.578-1-.578-1.437-1.906zm-.328-7.095q-1.578-.343-2.203-.343-2.532 0-4.141 1.296-1.594 1.297-1.594 3.079 0 2.937 3.453 2.937 2.532 0 4.485-2.406v-4.563zm20.18 9.25v-10.953q0-3-.907-4.203-.906-1.203-3.031-1.203-1.14 0-2.39.687-1.25.672-1.907 1.672v14h-3.344V486.75h2.281l1.063 2.422q1.64-2.766 5.39-2.766 6.188 0 6.188 7.516v11.656h-3.344zm11.529-25.953q.875 0 1.468.61.61.609.61 1.453 0 .86-.61 1.468-.593.61-1.468.61-.844 0-1.453-.61-.594-.609-.594-1.468 0-.86.594-1.453.593-.61 1.453-.61zm-1.828 25.953v-16.015H253.6v-2.813h5.922v18.828h-3.343zm24.515-9.093h-13.578q0 3.312 1.813 5.078 1.593 1.547 4.109 1.547 2.875 0 4.781-1.657l1.406 2.407q-.765.765-2.375 1.328-2 .75-4.453.75-3.562 0-6.031-2.422-2.766-2.656-2.766-7.125 0-4.672 2.829-7.485 2.53-2.5 6-2.5 4.03 0 6.312 2.266 2.219 2.172 2.219 5.781 0 1.11-.266 2.032zm-8.11-7.266q-2.234 0-3.75 1.437-1.437 1.375-1.624 3.407h10.422q0-2.016-1.266-3.375-1.39-1.469-3.781-1.469zm10.651 15.234 1.188-3.172q2.78 1.829 4.5 1.829 3.093 0 3.093-2.594 0-1.86-3-3.203-2.296-1.047-3.093-1.594-.797-.547-1.391-1.234-.594-.704-.89-1.485-.282-.781-.282-1.672 0-2.328 1.688-3.625 1.687-1.297 4.406-1.297 2.062 0 5.187 1.297l-.937 3.094q-2-1.578-4-1.578-1.188 0-2.016.562-.812.563-.812 1.422 0 1.813 2.062 2.735l2.39 1.093q2.188 1 3.188 2.282 1.016 1.281 1.016 3.218 0 2.532-1.781 3.97-1.781 1.437-4.922 1.437-2.969 0-5.594-1.485zm40.606.235q-2.547 1.25-6.157 1.25-3.671 0-5.671-2.172-2-2.172-2-6.156 0-2.032.593-3.516.61-1.5 2.235-3.11-2.485-2.453-2.485-5.109 0-2.687 2.032-4.594 2.03-1.906 5.437-1.906 3.625 0 5.594 1.594l-1.453 2.703q-2-1.672-3.594-1.672-4.672 0-4.672 4.219 0 2.297 2.047 3.875h6.531v-3.219l3.344-1.281v4.547h4.375v2.812h-4.375v5.797q0 2.438.64 3.313.657.875 2.25.875.954 0 2.235-.64l.484 3.108q-1.843.532-4.218.532-1.641 0-3.172-1.25zm-1.563-4.625v-7.11H315.2q-1.672 2.141-1.672 4.5 0 5.485 5.36 5.485 2.39 0 3.578-.86-.188-.812-.188-2.015zm26.717 4.156-1.172 1.719h-1.672V479.03h3.344v9.11q.469-.656 1.781-1.188 1.313-.547 2.578-.547 3.86 0 6.25 2.672 2.407 2.672 2.407 6.75 0 4.703-2.407 7.407-2.406 2.703-6.515 2.703-1.344 0-2.64-.5-1.282-.516-1.954-1.219zm.5-13.531v10.86q0 .28 1.234.921 1.25.64 1.907.64 3.406 0 4.875-1.624 1.484-1.641 1.484-5.485 0-3.203-1.719-4.984-1.719-1.797-4.64-1.797-.61 0-1.72.531-1.093.516-1.421.938zm20.15-11.063q.875 0 1.47.61.608.609.608 1.453 0 .86-.609 1.468-.594.61-1.469.61-.843 0-1.453-.61-.594-.609-.594-1.468 0-.86.594-1.453.594-.61 1.453-.61zm-1.828 25.953v-16.015h-2.578v-2.813h5.922v18.828h-3.344zm9.078-8.89v-3.078h7.516v3.078h-7.516zm13.063 3.562v-21.219h3.344v20.657q0 1.515.859 2.39.875.86 2.281.86v3q-6.484 0-6.484-5.688zm20.992 3.172q-2.016 2.516-6.14 2.516-2.22 0-3.844-1.61-1.625-1.609-1.625-4 0-2.875 2.5-4.843 2.515-1.985 6.39-1.985 1.063 0 2.39.453 0-4.562-4.077-4.562-3.125 0-4.813 1.687l-1.406-2.797q.953-.78 2.625-1.328 1.688-.547 3.219-.547 4.094 0 5.937 1.86 1.86 1.86 1.86 5.922v6.75q0 2.484 1.484 3.297v1.671q-2.047 0-3.062-.578-1-.578-1.438-1.906zm-.328-7.094q-1.578-.343-2.203-.343-2.531 0-4.14 1.296-1.595 1.297-1.595 3.079 0 2.937 3.454 2.937 2.53 0 4.484-2.406v-4.563zm9.789-6.937h-2.172v-2.64h2.172v-3.938l3.344-1.282v5.22h5.172v2.64h-5.172v9.344q0 2.375.797 3.375.812 1 2.578 1 1.281 0 2.656-.641l.5 2.937q-2.078.532-4.563.532-2.234 0-3.78-1.657-1.532-1.671-1.532-4.203v-10.687zm28.945 7.094h-13.578q0 3.312 1.813 5.078 1.593 1.547 4.109 1.547 2.875 0 4.781-1.657l1.407 2.407q-.766.765-2.375 1.328-2 .75-4.454.75-3.562 0-6.03-2.422-2.766-2.656-2.766-7.125 0-4.672 2.828-7.485 2.53-2.5 6-2.5 4.03 0 6.312 2.266 2.219 2.172 2.219 5.781 0 1.11-.266 2.032zm-8.11-7.266q-2.233 0-3.75 1.437-1.437 1.375-1.624 3.407h10.422q0-2.016-1.266-3.375-1.39-1.469-3.781-1.469zm22.12.75q-1.094-.75-2.203-.75-1.781 0-3.11 1.64-1.312 1.626-1.312 3.922v10.797h-3.344V486.75h3.344v3q1.828-3.344 5.422-3.344.906 0 2.594.313l-1.391 3.25zm14.398 13.453q-2.015 2.516-6.14 2.516-2.219 0-3.844-1.61-1.625-1.609-1.625-4 0-2.875 2.5-4.843 2.516-1.985 6.39-1.985 1.063 0 2.391.453 0-4.562-4.078-4.562-3.125 0-4.812 1.687l-1.407-2.797q.954-.78 2.625-1.328 1.688-.547 3.22-.547 4.093 0 5.937 1.86 1.86 1.86 1.86 5.922v6.75q0 2.484 1.483 3.297v1.671q-2.046 0-3.062-.578-1-.578-1.438-1.906zm-.328-7.094q-1.578-.343-2.203-.343-2.531 0-4.14 1.296-1.594 1.297-1.594 3.079 0 2.937 3.453 2.937 2.531 0 4.484-2.406v-4.563zm8.868 3.922v-21.219h3.343v20.657q0 1.515.86 2.39.875.86 2.28.86v3q-6.483 0-6.483-5.688zm-253.679 48.313v-1.39q-1.75 1.733-5.063 1.733-3.531 0-5.734-2.53-2.203-2.532-2.203-6.75 0-4.235 2.531-7.22 2.531-3 6.031-3 2.922 0 4.438 1.36v-8.735h3.344v26.532h-3.344zm0-14.453q-1.266-1.891-3.469-1.891-2.687 0-4.36 2-1.656 2-1.656 5.094 0 6.797 6.188 6.797.797 0 1.906-.5 1.11-.5 1.39-1.063V534.11zm23.978 5.375h-13.578q0 3.312 1.813 5.078 1.593 1.547 4.11 1.547 2.874 0 4.78-1.657l1.407 2.407q-.766.765-2.375 1.328-2 .75-4.454.75-3.562 0-6.03-2.422-2.766-2.656-2.766-7.125 0-4.672 2.828-7.485 2.53-2.5 6-2.5 4.03 0 6.312 2.266 2.219 2.172 2.219 5.781 0 1.11-.266 2.032zm-8.11-7.266q-2.233 0-3.75 1.437-1.437 1.375-1.624 3.407h10.422q0-2.016-1.266-3.375-1.39-1.47-3.781-1.47zm22.526 14.203q-2.015 2.516-6.14 2.516-2.219 0-3.844-1.61t-1.625-4q0-2.875 2.5-4.843 2.516-1.985 6.39-1.985 1.063 0 2.391.453 0-4.562-4.078-4.562-3.125 0-4.812 1.687l-1.407-2.797q.953-.78 2.625-1.328 1.688-.547 3.22-.547 4.093 0 5.937 1.86 1.859 1.86 1.859 5.922v6.75q0 2.484 1.484 3.297v1.671q-2.047 0-3.062-.578-1-.578-1.438-1.906zm-.328-7.094q-1.578-.343-2.203-.343-2.531 0-4.14 1.296-1.594 1.297-1.594 3.079 0 2.937 3.453 2.937 2.531 0 4.484-2.406v-4.563zm8.867 3.922v-21.219h3.344v20.657q0 1.515.86 2.39.875.86 2.28.86v3q-6.484 0-6.484-5.688zm32.149 5.328v-11.922q0-4.437-3.844-4.437-1.219 0-2.281.75-1.047.734-1.438 1.687v13.922h-3.343v-13.375q0-1.39-1.047-2.187-1.032-.797-2.766-.797-1 0-2.14.781-1.126.766-1.594 1.688v13.89h-3.344V529.75h2.172l1.11 2.188q1.937-2.532 4.843-2.532 4.031 0 5.656 2.5.563-1.062 2.094-1.78 1.531-.72 3.14-.72 2.922 0 4.516 1.735 1.61 1.719 1.61 4.844v12.593h-3.344zm18.726-2.156q-2.015 2.516-6.14 2.516-2.219 0-3.844-1.61t-1.625-4q0-2.875 2.5-4.843 2.516-1.985 6.39-1.985 1.063 0 2.391.453 0-4.562-4.078-4.562-3.125 0-4.812 1.687l-1.407-2.797q.954-.78 2.625-1.328 1.688-.547 3.22-.547 4.093 0 5.937 1.86 1.859 1.86 1.859 5.922v6.75q0 2.484 1.484 3.297v1.671q-2.046 0-3.062-.578-1-.578-1.438-1.906zm-.328-7.094q-1.578-.343-2.203-.343-2.531 0-4.14 1.296-1.594 1.297-1.594 3.079 0 2.937 3.453 2.937 2.531 0 4.484-2.406v-4.563zm20.758 9.25-5.906-9.422-2.906 3v6.422h-3.344v-26.547h3.344v16.47l7.203-8.75h3.906l-6.031 7.155 7.36 11.672h-3.626zm9.44-25.953q.875 0 1.468.61.61.609.61 1.453 0 .86-.61 1.468-.593.61-1.468.61-.844 0-1.454-.61-.593-.609-.593-1.468 0-.86.593-1.453.594-.61 1.454-.61zm-1.829 25.953v-16.015h-2.578v-2.813h5.922v18.828h-3.344zm20.235 0v-10.953q0-3-.906-4.203-.907-1.203-3.032-1.203-1.14 0-2.39.687-1.25.672-1.907 1.672v14h-3.343V529.75h2.28l1.063 2.422q1.641-2.766 5.391-2.766 6.188 0 6.188 7.516v11.656h-3.344zm7.404 5.157 1.813-2.672q2.921 1.953 5.375 1.953 2.265 0 3.578-.797 1.312-.781 1.312-1.938 0-2.28-3.312-2.28-.563 0-2.047.28-1.469.282-2.281.282-4.016 0-4.016-3.032 0-.921.937-1.671.938-.766 2.329-1.094-3.97-1.875-3.97-6.469 0-2.953 2.048-4.922 2.062-1.969 5.093-1.969 2.782 0 4.344 1.141l1.672-2.016 2.172 2.063-2 1.516q1.281 1.671 1.281 4.359 0 2.844-1.781 4.781-1.766 1.938-4.656 2.219l-2.75.281q-.5.047-1.328.375-.829.328-.829.844 0 .719 1.735.719.75 0 2.344-.266 1.609-.266 2.375-.266 2.78 0 4.328 1.329 1.562 1.312 1.562 3.671 0 2.61-2.328 4.204-2.328 1.609-5.89 1.609-1.829 0-3.86-.656-2.016-.657-3.25-1.578zm7.078-21.641q-1.734 0-2.844 1.234-1.093 1.22-1.093 2.985 0 1.968 1.062 3.265 1.078 1.282 2.875 1.282 1.781 0 2.781-1.25 1-1.266 1-3.297 0-1.766-1.078-2.985-1.078-1.234-2.703-1.234z"/><path d="M523.587 457.916c0-158.049 131.804-286.173 294.393-286.173 78.079 0 152.959 30.15 208.168 83.818 55.21 53.668 86.226 126.457 86.226 202.355 0 158.05-131.804 286.173-294.394 286.173-162.589 0-294.393-128.124-294.393-286.173z"/><path stroke="#fff" stroke-linecap="butt" stroke-linejoin="round" stroke-width="4" d="M523.587 457.916c0-158.049 131.804-286.173 294.393-286.173 78.079 0 152.959 30.15 208.168 83.818 55.21 53.668 86.226 126.457 86.226 202.355 0 158.05-131.804 286.173-294.394 286.173-162.589 0-294.393-128.124-294.393-286.173z"/><path fill="#fff" d="m682.714 403.18-1.188 3q-1.687-1.235-5.297-1.235-3.406 0-5.453 2.922t-2.047 7.515q0 4.407 2.094 7.141 2.11 2.734 5.438 2.734 3.625 0 5.562-2.578l1.938 2.688q-3.063 3.047-7.875 3.047-5.047 0-7.953-3.64-2.891-3.642-2.891-9.595 0-5.765 3.094-9.578 3.093-3.812 8-3.812 4.203 0 6.578 1.39zm3.596 15.343q0-4.36 2.343-7.031 2.36-2.688 6.188-2.688 4.047 0 6.265 2.578 2.235 2.563 2.235 7.141 0 4.547-2.281 7.188-2.282 2.625-6.22 2.625-4.03 0-6.28-2.657-2.25-2.656-2.25-7.156zm3.515 0q0 7.078 5.016 7.078 2.328 0 3.656-1.89 1.328-1.907 1.328-5.188 0-7-4.984-7-2.281 0-3.656 1.86-1.36 1.859-1.36 5.14zm38.834 9.453v-11.922q0-4.437-3.844-4.437-1.218 0-2.28.75-1.048.734-1.438 1.687v13.922h-3.344v-13.375q0-1.39-1.047-2.187-1.031-.797-2.766-.797-1 0-2.14.781-1.125.766-1.594 1.688v13.89h-3.344v-18.828h2.172l1.11 2.188q1.937-2.532 4.843-2.532 4.032 0 5.657 2.5.562-1.062 2.093-1.78 1.532-.72 3.14-.72 2.923 0 4.517 1.735 1.609 1.718 1.609 4.843v12.594h-3.344zm11.43-1.031v8.422h-3.344v-26.219h3.344v1.547q1.89-1.89 4.578-1.89 4.016 0 6.25 2.5 2.234 2.484 2.234 7.296 0 4.297-2.25 7.016-2.25 2.719-6.515 2.719-1.188 0-2.563-.422-1.36-.438-1.734-.97zm0-13.734v10.968q.312.47 1.328.907 1.016.421 1.984.421 6.235 0 6.235-7.03 0-3.563-1.485-5.204-1.468-1.656-4.734-1.656-.703 0-1.719.5-1.015.484-1.61 1.094zm32.572 5.671h-13.578q0 3.313 1.813 5.079 1.593 1.546 4.109 1.546 2.875 0 4.781-1.656l1.406 2.406q-.765.766-2.375 1.329-2 .75-4.453.75-3.562 0-6.031-2.422-2.766-2.657-2.766-7.125 0-4.672 2.829-7.485 2.53-2.5 6-2.5 4.03 0 6.312 2.266 2.219 2.172 2.219 5.781 0 1.11-.266 2.031zm-8.11-7.265q-2.234 0-3.75 1.437-1.437 1.375-1.624 3.407h10.422q0-2.016-1.266-3.375-1.39-1.47-3.781-1.47zm13.073.172h-2.172v-2.64h2.172v-3.938l3.344-1.282v5.22h5.172v2.64h-5.172v9.343q0 2.375.797 3.375.812 1 2.578 1 1.281 0 2.656-.64l.5 2.937q-2.078.532-4.562.532-2.235 0-3.782-1.657-1.531-1.672-1.531-4.203V411.79zm16.523-9.766q.875 0 1.47.61.609.609.609 1.453 0 .859-.61 1.468-.594.61-1.469.61-.843 0-1.453-.61-.593-.61-.593-1.468 0-.86.593-1.454.594-.609 1.453-.609zm-1.828 25.953v-16.015h-2.578v-2.813h5.922v18.828h-3.344zm9.844-16.187h-2.172v-2.64h2.172v-3.938l3.344-1.282v5.22h5.172v2.64h-5.172v9.343q0 2.375.797 3.375.812 1 2.578 1 1.281 0 2.656-.64l.5 2.937q-2.078.532-4.562.532-2.235 0-3.782-1.657-1.53-1.672-1.53-4.203V411.79zm16.524-9.766q.875 0 1.468.61.61.609.61 1.453 0 .859-.61 1.468-.593.61-1.468.61-.844 0-1.454-.61-.593-.61-.593-1.468 0-.86.593-1.454.594-.609 1.454-.609zm-1.829 25.953v-16.015h-2.578v-2.813h5.922v18.828h-3.344zm15.438.36h-.875l-8.063-19.235h3.657l4.968 13.172 5.079-13.172h3.5l-8.266 19.235zm26.709-9.454h-13.578q0 3.313 1.812 5.079 1.594 1.546 4.11 1.546 2.875 0 4.78-1.656l1.407 2.406q-.765.766-2.375 1.329-2 .75-4.453.75-3.562 0-6.031-2.422-2.766-2.657-2.766-7.125 0-4.672 2.828-7.485 2.532-2.5 6-2.5 4.032 0 6.313 2.266 2.219 2.172 2.219 5.781 0 1.11-.266 2.031zm-8.11-7.265q-2.234 0-3.75 1.437-1.437 1.375-1.624 3.407h10.421q0-2.016-1.265-3.375-1.39-1.47-3.781-1.47zm23.463 16.36v-10.954q0-3-.906-4.203-.906-1.203-3.031-1.203-1.14 0-2.39.687-1.25.672-1.907 1.672v14h-3.344v-18.828h2.282l1.062 2.422q1.64-2.766 5.39-2.766 6.188 0 6.188 7.516v11.656h-3.344zm23.952-9.095h-13.58q0 3.313 1.813 5.079 1.594 1.546 4.11 1.546 2.874 0 4.78-1.656l1.407 2.406q-.766.766-2.375 1.329-2 .75-4.453.75-3.563 0-6.032-2.422-2.765-2.657-2.765-7.125 0-4.672 2.828-7.485 2.531-2.5 6-2.5 4.031 0 6.312 2.266 2.22 2.172 2.22 5.781 0 1.11-.266 2.031zm-8.11-7.265q-2.234 0-3.75 1.437-1.437 1.375-1.625 3.407h10.422q0-2.016-1.266-3.375-1.39-1.47-3.78-1.47zm10.65 15.234 1.188-3.172q2.781 1.828 4.5 1.828 3.094 0 3.094-2.593 0-1.86-3-3.203-2.297-1.047-3.094-1.594-.797-.547-1.39-1.235-.594-.703-.891-1.484-.281-.781-.281-1.672 0-2.328 1.687-3.625 1.688-1.297 4.406-1.297 2.063 0 5.188 1.297l-.938 3.094q-2-1.578-4-1.578-1.187 0-2.015.562-.813.563-.813 1.422 0 1.813 2.063 2.735l2.39 1.093q2.188 1 3.188 2.282 1.015 1.28 1.015 3.218 0 2.532-1.78 3.97-1.782 1.437-4.923 1.437-2.968 0-5.593-1.485zm14.573 0 1.187-3.172q2.782 1.828 4.5 1.828 3.094 0 3.094-2.593 0-1.86-3-3.203-2.297-1.047-3.094-1.594-.797-.547-1.39-1.235-.594-.703-.89-1.484-.282-.781-.282-1.672 0-2.328 1.687-3.625 1.688-1.297 4.407-1.297 2.062 0 5.187 1.297l-.937 3.094q-2-1.578-4-1.578-1.188 0-2.016.562-.813.563-.813 1.422 0 1.813 2.063 2.735l2.39 1.093q2.188 1 3.188 2.282 1.016 1.28 1.016 3.218 0 2.532-1.782 3.97-1.78 1.437-4.921 1.437-2.97 0-5.594-1.485zm25.418-8.328q0-4.36 2.344-7.031 2.359-2.688 6.187-2.688 4.047 0 6.266 2.578 2.234 2.563 2.234 7.141 0 4.547-2.281 7.188-2.281 2.625-6.219 2.625-4.031 0-6.281-2.657-2.25-2.656-2.25-7.156zm3.515 0q0 7.078 5.016 7.078 2.328 0 3.656-1.89 1.328-1.907 1.328-5.188 0-7-4.984-7-2.281 0-3.656 1.86-1.36 1.859-1.36 5.14zm27.21-14.11q-1.016-.343-1.891-.343-1.531 0-2.531 1.156-.985 1.156-.985 2.938 0 .468.078.984h3.844v2.813h-3.844v16.015h-3.328v-16.015h-2.75v-2.813h2.75q0-3.61 1.766-5.656 1.781-2.063 4.703-2.063 1.453 0 3.125.532l-.938 2.453zm-335.234 40.813h3.516v17.625q0 2.36 1.484 3.89 1.5 1.516 3.969 1.516 2.594 0 4.078-1.468 1.5-1.485 1.5-4.016v-17.547h3.516v17.906q0 3.907-2.438 6.094-2.422 2.188-6.625 2.188-4.328 0-6.672-2.141-2.328-2.14-2.328-6.156v-17.89zm26.922 20.813q1.094 0 1.86.78.78.767.78 1.86 0 1.078-.78 1.875-.766.782-1.86.782-1.078 0-1.86-.782-.765-.797-.765-1.875 0-1.093.766-1.86.78-.78 1.859-.78zm8.484 3.765 1.282-3.234q.984.719 2.453 1.203 1.468.484 2.625.484 2.047 0 3.297-1.125t1.25-2.875q0-1.296-.704-2.406-.687-1.125-3.484-2.437l-2.062-.97q-2.641-1.233-3.688-2.921-1.047-1.687-1.047-4.062 0-2.875 2.031-4.766 2.047-1.906 5.25-1.906 4.266 0 5.938 1.39l-1.031 3.047q-.703-.5-2.157-.969-1.437-.484-2.671-.484-1.782 0-2.813 1.016-1.031 1.015-1.031 2.625 0 .984.36 1.797.374.796 1.03 1.343.672.547 2.704 1.532l2.109 1q2.64 1.25 3.703 2.984 1.063 1.734 1.063 4.406 0 2.89-2.329 4.922-2.328 2.016-6.234 2.016-3.422 0-5.844-1.61zm22.05-3.765q1.093 0 1.858.78.782.767.782 1.86 0 1.078-.782 1.875-.765.782-1.859.782-1.078 0-1.86-.782-.765-.797-.765-1.875 0-1.093.766-1.86.781-.78 1.86-.78zm33.124 4.937-1.781-5.437h-9.578l-1.89 5.437h-3.938l10.453-26.11h.937l9.703 26.11h-3.906zm-6.437-19.36-3.985 11.345h7.64l-3.655-11.344zm13.656 19.36v-25.75h3.515v25.75h-3.515zm20.256 0v-25.75h3.515v22.578h11.641v3.172h-15.156zm28.603-2.156q-2.015 2.516-6.14 2.516-2.22 0-3.844-1.61-1.625-1.61-1.625-4 0-2.875 2.5-4.844 2.515-1.984 6.39-1.984 1.063 0 2.391.453 0-4.562-4.078-4.562-3.125 0-4.813 1.687l-1.406-2.797q.953-.781 2.625-1.328 1.688-.547 3.219-.547 4.094 0 5.937 1.86 1.86 1.859 1.86 5.922v6.75q0 2.484 1.484 3.296v1.672q-2.047 0-3.062-.578-1-.578-1.438-1.906zm-.328-7.094q-1.578-.344-2.203-.344-2.531 0-4.14 1.297-1.594 1.297-1.594 3.078 0 2.938 3.453 2.938 2.531 0 4.484-2.406v-4.563zm11.445 7.89-1.171 1.72h-1.672v-26.907h3.343v9.11q.47-.657 1.782-1.188 1.312-.547 2.578-.547 3.86 0 6.25 2.672 2.406 2.672 2.406 6.75 0 4.703-2.406 7.406-2.406 2.704-6.516 2.704-1.344 0-2.64-.5-1.282-.516-1.954-1.22zm.5-13.53v10.859q0 .281 1.235.922 1.25.64 1.906.64 3.406 0 4.875-1.625 1.484-1.64 1.484-5.484 0-3.203-1.718-4.984-1.72-1.797-4.641-1.797-.61 0-1.719.531-1.093.516-1.422.938zm15.479 13.765 1.187-3.172q2.782 1.828 4.5 1.828 3.094 0 3.094-2.593 0-1.86-3-3.203-2.297-1.047-3.094-1.594-.796-.547-1.39-1.235-.594-.703-.89-1.484-.282-.781-.282-1.672 0-2.328 1.687-3.625 1.688-1.297 4.407-1.297 2.062 0 5.187 1.297l-.937 3.094q-2-1.578-4-1.578-1.188 0-2.016.562-.812.563-.812 1.422 0 1.813 2.062 2.735l2.39 1.093q2.188 1 3.188 2.282 1.016 1.28 1.016 3.218 0 2.532-1.781 3.969-1.782 1.438-4.922 1.438-2.97 0-5.594-1.485zm40.605.235q-2.546 1.25-6.156 1.25-3.672 0-5.672-2.172-2-2.172-2-6.157 0-2.03.594-3.515.61-1.5 2.234-3.11-2.484-2.453-2.484-5.109 0-2.687 2.031-4.594 2.032-1.906 5.438-1.906 3.625 0 5.594 1.594l-1.454 2.703q-2-1.672-3.593-1.672-4.672 0-4.672 4.219 0 2.297 2.047 3.875h6.53v-3.219l3.345-1.281v4.547h4.375v2.812h-4.375v5.797q0 2.438.64 3.313.657.875 2.25.875.953 0 2.235-.641l.484 3.11q-1.844.53-4.219.53-1.64 0-3.172-1.25zm-1.562-4.625v-7.11h-7.078q-1.672 2.14-1.672 4.5 0 5.485 5.36 5.485 2.39 0 3.577-.86-.187-.812-.187-2.015zm35.451 5.515v-10.953q0-3-.906-4.203-.906-1.203-3.031-1.203-1.141 0-2.391.687-1.25.672-1.906 1.672v14h-3.344v-18.828h2.281l1.063 2.422q1.64-2.766 5.39-2.766 6.188 0 6.188 7.516v11.656h-3.344zm18.732-2.156q-2.015 2.516-6.14 2.516-2.219 0-3.844-1.61t-1.625-4q0-2.875 2.5-4.844 2.516-1.984 6.39-1.984 1.063 0 2.391.453 0-4.562-4.078-4.562-3.125 0-4.812 1.687l-1.407-2.797q.954-.781 2.625-1.328 1.688-.547 3.22-.547 4.093 0 5.937 1.86 1.86 1.859 1.86 5.922v6.75q0 2.484 1.483 3.296v1.672q-2.046 0-3.062-.578-1-.578-1.438-1.906zm-.328-7.094q-1.578-.344-2.203-.344-2.531 0-4.14 1.297-1.594 1.297-1.594 3.078 0 2.938 3.453 2.938 2.531 0 4.484-2.406v-4.563zm9.79-6.937h-2.172v-2.641h2.171v-3.937l3.344-1.282v5.219h5.172v2.64h-5.172v9.344q0 2.375.797 3.375.813 1 2.578 1 1.281 0 2.656-.64l.5 2.937q-2.078.532-4.562.532-2.234 0-3.781-1.657-1.532-1.672-1.532-4.203V454.79zm16.523-9.766q.875 0 1.469.61.609.609.609 1.453 0 .859-.61 1.468-.593.61-1.468.61-.844 0-1.453-.61-.594-.61-.594-1.468 0-.86.594-1.454.593-.609 1.453-.609zm-1.828 25.953v-16.015h-2.578v-2.813h5.922v18.828h-3.344zm7.422-9.453q0-4.36 2.343-7.031 2.36-2.688 6.188-2.688 4.047 0 6.265 2.578 2.235 2.563 2.235 7.141 0 4.547-2.281 7.188-2.282 2.625-6.22 2.625-4.03 0-6.28-2.657-2.25-2.656-2.25-7.156zm3.515 0q0 7.078 5.016 7.078 2.328 0 3.656-1.89 1.328-1.907 1.328-5.188 0-7-4.984-7-2.281 0-3.656 1.86-1.36 1.859-1.36 5.14zm28.615 9.453v-10.953q0-3-.906-4.203-.906-1.203-3.031-1.203-1.14 0-2.39.687-1.25.672-1.907 1.672v14h-3.344v-18.828h2.282l1.062 2.422q1.64-2.766 5.39-2.766 6.188 0 6.188 7.516v11.656h-3.344zm18.733-2.156q-2.016 2.516-6.14 2.516-2.22 0-3.844-1.61-1.625-1.61-1.625-4 0-2.875 2.5-4.844 2.515-1.984 6.39-1.984 1.063 0 2.39.453 0-4.562-4.077-4.562-3.125 0-4.813 1.687l-1.406-2.797q.953-.781 2.625-1.328 1.687-.547 3.219-.547 4.093 0 5.937 1.86 1.86 1.859 1.86 5.922v6.75q0 2.484 1.484 3.296v1.672q-2.047 0-3.063-.578-1-.578-1.437-1.906zm-.328-7.094q-1.578-.344-2.203-.344-2.532 0-4.141 1.297-1.594 1.297-1.594 3.078 0 2.938 3.453 2.938 2.532 0 4.485-2.406v-4.563zm8.867 3.922v-21.219h3.344v20.657q0 1.515.86 2.39.874.86 2.28.86v3q-6.484 0-6.484-5.688zm-315.841 47.203 1.188-3.172q2.78 1.828 4.5 1.828 3.093 0 3.093-2.593 0-1.86-3-3.203-2.296-1.047-3.093-1.594-.797-.547-1.391-1.235-.594-.703-.89-1.484-.282-.781-.282-1.672 0-2.328 1.688-3.625 1.687-1.297 4.406-1.297 2.062 0 5.187 1.297l-.937 3.094q-2-1.578-4-1.578-1.188 0-2.016.562-.812.563-.812 1.422 0 1.813 2.062 2.735l2.39 1.093q2.188 1 3.188 2.282 1.016 1.28 1.016 3.218 0 2.532-1.781 3.97-1.781 1.437-4.922 1.437-2.969 0-5.594-1.485zm31.666-7.969H696.54q0 3.313 1.813 5.079 1.593 1.546 4.109 1.546 2.875 0 4.781-1.656l1.406 2.406q-.765.766-2.375 1.329-2 .75-4.453.75-3.562 0-6.031-2.422-2.766-2.657-2.766-7.125 0-4.672 2.829-7.485 2.53-2.5 6-2.5 4.03 0 6.312 2.266 2.219 2.172 2.219 5.781 0 1.11-.266 2.031zm-8.11-7.265q-2.234 0-3.75 1.437-1.437 1.375-1.624 3.407h10.422q0-2.016-1.266-3.375-1.39-1.47-3.781-1.47zm26.089-.938-1.657 2.36q-.5-.516-1.796-.97-1.297-.452-2.547-.452-2.72 0-4.328 1.906-1.594 1.906-1.594 5.219 0 3.312 1.625 5.047 1.64 1.718 4.547 1.718 2.25 0 4.53-1.734l1.33 2.813q-2.688 1.75-6.673 1.75-3.844 0-6.36-2.579-2.515-2.593-2.515-7.015 0-4.5 2.61-7.219 2.609-2.719 7.156-2.719 1.453 0 3.156.61 1.703.609 2.516 1.265zm6.777-1.531v12q0 4.36 3.781 4.36 1.657 0 3.032-.938 1.375-.953 1.812-2.203v-13.219h3.328v18.828H743.5v-2.61q-.562 1.11-2.266 2.048-1.687.922-3.312.922-3.094 0-4.734-1.782-1.641-1.781-1.641-5.047v-12.359h3.328zm26.748 3.219q-1.094-.75-2.203-.75-1.781 0-3.11 1.64-1.312 1.625-1.312 3.922v10.797h-3.344v-18.828h3.344v3q1.828-3.344 5.422-3.344.906 0 2.594.313l-1.39 3.25zm7.195-10.344q.875 0 1.47.61.609.609.609 1.453 0 .859-.61 1.468-.594.61-1.469.61-.843 0-1.453-.61-.593-.61-.593-1.468 0-.86.593-1.454.594-.609 1.453-.609zm-1.828 25.953v-16.015h-2.578v-2.813h5.922v18.828h-3.344zm9.844-16.187h-2.172v-2.641h2.172v-3.937l3.344-1.282v5.219h5.172v2.64h-5.172v9.344q0 2.375.797 3.375.812 1 2.578 1 1.281 0 2.656-.64l.5 2.937q-2.078.532-4.562.532-2.235 0-3.782-1.657-1.531-1.672-1.531-4.203V497.79zm20.273 19.39q-.656 1.797-2.734 2.985-2.078 1.203-4.64 1.203v-3q2.078 0 3.578-.985 1.5-.968 1.5-2.375 0-1.546-.547-3.046-.547-1.5-1.407-3.72l-5.093-13.093h3.406l5.531 14.563 4.985-14.563h3.406l-7.985 22.031zm35.616-20.5-1.657 2.36q-.5-.516-1.796-.97-1.297-.452-2.547-.452-2.72 0-4.328 1.906-1.594 1.906-1.594 5.219 0 3.312 1.625 5.047 1.64 1.718 4.547 1.718 2.25 0 4.53-1.734l1.33 2.813q-2.688 1.75-6.673 1.75-3.844 0-6.36-2.579-2.515-2.593-2.515-7.015 0-4.5 2.61-7.219 2.609-2.719 7.156-2.719 1.453 0 3.156.61 1.703.609 2.516 1.265zm2.386 7.844q0-4.36 2.344-7.031 2.36-2.688 6.188-2.688 4.047 0 6.265 2.578 2.235 2.563 2.235 7.141 0 4.547-2.282 7.188-2.28 2.625-6.218 2.625-4.032 0-6.282-2.657-2.25-2.656-2.25-7.156zm3.516 0q0 7.078 5.016 7.078 2.328 0 3.656-1.89 1.328-1.907 1.328-5.188 0-7-4.984-7-2.282 0-3.657 1.86-1.359 1.859-1.359 5.14zm28.615 9.453v-10.953q0-3-.906-4.203-.906-1.203-3.031-1.203-1.14 0-2.39.687-1.25.672-1.907 1.672v14h-3.344v-18.828h2.281l1.063 2.422q1.64-2.766 5.39-2.766 6.188 0 6.188 7.516v11.656h-3.344zm22.295-17.297-1.656 2.36q-.5-.516-1.797-.97-1.297-.452-2.547-.452-2.719 0-4.328 1.906-1.594 1.906-1.594 5.219 0 3.312 1.625 5.047 1.64 1.718 4.547 1.718 2.25 0 4.531-1.734l1.329 2.813q-2.688 1.75-6.672 1.75-3.844 0-6.36-2.579-2.515-2.593-2.515-7.015 0-4.5 2.61-7.219 2.608-2.719 7.155-2.719 1.453 0 3.157.61 1.703.609 2.515 1.265zm19.48 8.203h-13.577q0 3.313 1.812 5.079 1.594 1.546 4.11 1.546 2.874 0 4.78-1.656l1.407 2.406q-.766.766-2.375 1.329-2 .75-4.453.75-3.563 0-6.031-2.422-2.766-2.657-2.766-7.125 0-4.672 2.828-7.485 2.531-2.5 6-2.5 4.031 0 6.313 2.266 2.218 2.172 2.218 5.781 0 1.11-.265 2.031zm-8.109-7.265q-2.234 0-3.75 1.437-1.437 1.375-1.625 3.407h10.422q0-2.016-1.265-3.375-1.391-1.47-3.782-1.47zm22.12.75q-1.094-.75-2.204-.75-1.781 0-3.11 1.64-1.312 1.625-1.312 3.922v10.797h-3.343v-18.828h3.343v3q1.829-3.344 5.422-3.344.907 0 2.594.313l-1.39 3.25zm15.335 15.61v-10.954q0-3-.906-4.203-.906-1.203-3.031-1.203-1.14 0-2.39.687-1.25.672-1.907 1.672v14h-3.344v-18.828h2.281l1.063 2.422q1.64-2.766 5.39-2.766 6.188 0 6.188 7.516v11.656h-3.344zm6.858-1.126 1.187-3.172q2.782 1.828 4.5 1.828 3.094 0 3.094-2.593 0-1.86-3-3.203-2.297-1.047-3.094-1.594-.797-.547-1.39-1.235-.594-.703-.891-1.484-.281-.781-.281-1.672 0-2.328 1.687-3.625 1.688-1.297 4.407-1.297 2.062 0 5.187 1.297l-.937 3.094q-2-1.578-4-1.578-1.188 0-2.016.562-.813.563-.813 1.422 0 1.813 2.063 2.735l2.39 1.093q2.188 1 3.188 2.282 1.016 1.28 1.016 3.218 0 2.532-1.782 3.97-1.78 1.437-4.921 1.437-2.97 0-5.594-1.485z"/><path d="M401.471 22.132H724.59v151.527H401.471z"/><path fill="#fff" d="m480.224 83.4 1.672-4.187q1.281.937 3.172 1.562 1.906.625 3.406.625 2.672 0 4.281-1.453 1.625-1.468 1.625-3.718 0-1.688-.906-3.125-.89-1.454-4.516-3.157l-2.687-1.265q-3.422-1.594-4.782-3.782-1.343-2.187-1.343-5.25 0-3.75 2.64-6.203 2.641-2.453 6.782-2.453 5.546 0 7.703 1.797l-1.344 3.953q-.906-.656-2.781-1.265-1.86-.625-3.453-.625-2.329 0-3.672 1.328-1.328 1.328-1.328 3.39 0 1.282.468 2.328.485 1.047 1.344 1.75.86.704 3.5 1.985l2.734 1.297q3.422 1.625 4.797 3.875 1.375 2.234 1.375 5.703 0 3.75-3.015 6.375-3.016 2.61-8.078 2.61-4.438 0-7.594-2.095zm44.158-10.25H506.79q0 4.282 2.359 6.594 2.062 2 5.328 2 3.703 0 6.188-2.172l1.828 3.125q-1 1-3.078 1.735-2.594.953-5.782.953-4.61 0-7.812-3.125-3.578-3.438-3.578-9.25 0-6.031 3.672-9.672 3.265-3.266 7.765-3.266 5.219 0 8.172 2.938 2.875 2.828 2.875 7.5 0 1.437-.344 2.64zm-10.5-9.421q-2.89 0-4.86 1.859-1.858 1.781-2.108 4.422h13.5q0-2.625-1.641-4.375-1.797-1.906-4.89-1.906zm33.806-1.22-2.14 3.063q-.656-.672-2.344-1.25-1.672-.593-3.281-.593-3.531 0-5.61 2.468-2.078 2.47-2.078 6.782 0 4.28 2.125 6.53 2.125 2.235 5.875 2.235 2.922 0 5.875-2.25l1.719 3.64q-3.484 2.25-8.64 2.25-4.985 0-8.25-3.343-3.25-3.344-3.25-9.062 0-5.844 3.374-9.375 3.391-3.532 9.266-3.532 1.89 0 4.094.797 2.219.797 3.265 1.64zm8.788-1.984v15.563q0 5.656 4.907 5.656 2.14 0 3.906-1.234 1.781-1.235 2.36-2.844v-17.14h4.327v24.406h-4.328v-3.375q-.734 1.437-2.937 2.64-2.188 1.188-4.282 1.188-4.015 0-6.156-2.297-2.125-2.297-2.125-6.547V60.525h4.328zm34.649 4.172q-1.406-.968-2.844-.968-2.297 0-4.016 2.125-1.718 2.109-1.718 5.093v13.985h-4.328V60.525h4.328v3.907q2.36-4.36 7.03-4.36 1.173 0 3.36.422l-1.812 4.203zm9.353-13.39q1.109 0 1.89.797.797.78.797 1.875 0 1.109-.797 1.906-.781.781-1.89.781-1.094 0-1.891-.781-.781-.797-.781-1.906 0-1.125.765-1.891.782-.781 1.907-.781zm-2.375 33.625v-20.75h-3.344v-3.657h7.672v24.407h-4.328zm12.757-20.985h-2.828v-3.422h2.828v-5.093l4.328-1.672v6.765h6.703v3.422h-6.703v12.125q0 3.078 1.031 4.375 1.047 1.297 3.344 1.297 1.656 0 3.438-.844l.64 3.797q-2.687.688-5.906.688-2.89 0-4.89-2.14-1.985-2.157-1.985-5.438v-13.86zm26.264 25.125q-.844 2.328-3.547 3.875-2.687 1.547-6.015 1.547v-3.86q2.703 0 4.64-1.265 1.938-1.265 1.938-3.094 0-2-.703-3.953-.704-1.953-1.829-4.812L625 60.525h4.422l7.187 18.875 6.438-18.875h4.422l-10.344 28.547zm-186.827 58.532 2.344-3.454q3.781 2.516 6.969 2.516 2.937 0 4.64-1.016 1.703-1 1.703-2.515 0-2.953-4.281-2.953-.734 0-2.656.375-1.906.36-2.985.36-5.187 0-5.187-3.923 0-1.219 1.219-2.187 1.218-.985 3.015-1.422-5.14-2.406-5.14-8.375 0-3.828 2.656-6.375 2.672-2.563 6.594-2.563 3.593 0 5.625 1.485l2.156-2.594 2.828 2.656-2.594 1.969q1.657 2.156 1.657 5.64 0 3.704-2.297 6.204-2.297 2.5-6.032 2.875l-3.578.36q-.64.062-1.718.483-1.063.422-1.063 1.11 0 .937 2.234.937.97 0 3.047-.343 2.078-.36 3.078-.36 3.594 0 5.61 1.719 2.015 1.719 2.015 4.766 0 3.375-3.015 5.437-3.016 2.078-7.64 2.078-2.376 0-5-.844-2.61-.843-4.204-2.046zm9.188-28.047q-2.266 0-3.688 1.61-1.422 1.593-1.422 3.858 0 2.563 1.375 4.235 1.375 1.672 3.735 1.672 2.296 0 3.593-1.625 1.297-1.64 1.297-4.282 0-2.265-1.406-3.859-1.39-1.61-3.484-1.61zm19.216-3.032v15.563q0 5.656 4.906 5.656 2.14 0 3.906-1.234 1.781-1.235 2.36-2.844v-17.14h4.328v24.406h-4.329v-3.375q-.734 1.437-2.937 2.64-2.188 1.188-4.281 1.188-4.016 0-6.156-2.297-2.125-2.297-2.125-6.547v-16.016h4.328zm35.18 21.61q-2.594 3.25-7.954 3.25-2.875 0-4.984-2.078-2.094-2.094-2.094-5.188 0-3.719 3.235-6.281 3.25-2.563 8.28-2.563 1.376 0 3.11.594 0-5.922-5.297-5.922-4.047 0-6.234 2.188l-1.828-3.625q1.234-1 3.406-1.719 2.188-.719 4.156-.719 5.313 0 7.72 2.422 2.405 2.406 2.405 7.672v8.75q0 3.219 1.907 4.281v2.172q-2.641 0-3.954-.75-1.312-.765-1.875-2.484zm-.407-9.188q-2.062-.453-2.875-.453-3.281 0-5.36 1.688-2.062 1.687-2.062 3.984 0 3.797 4.485 3.797 3.281 0 5.812-3.11v-5.906zm24.388-8.25q-1.406-.968-2.844-.968-2.297 0-4.015 2.125-1.72 2.109-1.72 5.093v13.985h-4.327v-24.407h4.328v3.907q2.36-4.36 7.031-4.36 1.172 0 3.36.422l-1.813 4.203zm18.665 17.438q-2.594 3.25-7.953 3.25-2.875 0-4.984-2.078-2.094-2.094-2.094-5.188 0-3.719 3.234-6.281 3.25-2.563 8.282-2.563 1.375 0 3.109.594 0-5.922-5.297-5.922-4.047 0-6.234 2.188l-1.828-3.625q1.234-1 3.406-1.719 2.187-.719 4.156-.719 5.313 0 7.719 2.422 2.406 2.406 2.406 7.672v8.75q0 3.219 1.906 4.281v2.172q-2.64 0-3.953-.75-1.312-.765-1.875-2.484zm-.406-9.188q-2.063-.453-2.875-.453-3.281 0-5.36 1.688-2.062 1.687-2.062 3.984 0 3.797 4.484 3.797 3.282 0 5.813-3.11v-5.906zm26.153 11.985v-14.188q0-3.906-1.187-5.453-1.172-1.562-3.922-1.562-1.484 0-3.11.89-1.609.875-2.468 2.172v18.14h-4.328v-24.406h2.953l1.375 3.157q2.14-3.61 6.984-3.61 8.031 0 8.031 9.75v15.11h-4.328zm12.024-20.985h-2.828v-3.422h2.828v-5.093l4.328-1.672v6.765h6.703v3.422h-6.703v12.125q0 3.078 1.031 4.375 1.047 1.297 3.344 1.297 1.656 0 3.438-.844l.64 3.797q-2.687.688-5.906.688-2.89 0-4.89-2.14-1.985-2.157-1.985-5.438v-13.86zm37.498 9.203h-17.593q0 4.282 2.36 6.594 2.062 2 5.327 2 3.703 0 6.188-2.172l1.828 3.125q-1 1-3.078 1.735-2.594.953-5.782.953-4.609 0-7.812-3.125-3.578-3.438-3.578-9.25 0-6.031 3.672-9.672 3.265-3.266 7.765-3.266 5.22 0 8.172 2.938 2.875 2.828 2.875 7.5 0 1.437-.344 2.64zm-10.5-9.421q-2.89 0-4.859 1.859-1.86 1.781-2.11 4.422h13.5q0-2.625-1.64-4.375-1.797-1.906-4.89-1.906zm35.947 9.421H639.65q0 4.282 2.36 6.594 2.062 2 5.328 2 3.703 0 6.187-2.172l1.829 3.125q-1 1-3.079 1.735-2.593.953-5.78.953-4.61 0-7.813-3.125-3.578-3.438-3.578-9.25 0-6.031 3.671-9.672 3.266-3.266 7.766-3.266 5.219 0 8.172 2.938 2.875 2.828 2.875 7.5 0 1.437-.344 2.64zm-10.5-9.421q-2.89 0-4.86 1.859-1.859 1.781-2.109 4.422h13.5q0-2.625-1.64-4.375-1.797-1.906-4.89-1.906zm13.806 19.75 1.516-4.11q3.625 2.375 5.844 2.375 4 0 4-3.375 0-2.406-3.875-4.14-2.985-1.375-4.016-2.079-1.031-.703-1.797-1.593-.765-.907-1.14-1.922-.375-1.016-.375-2.172 0-3.016 2.187-4.703 2.188-1.688 5.719-1.688 2.656 0 6.719 1.688l-1.235 4.015q-2.562-2.046-5.172-2.046-1.546 0-2.609.734-1.047.719-1.047 1.828 0 2.36 2.656 3.563l3.094 1.406q2.86 1.297 4.156 2.969 1.297 1.656 1.297 4.171 0 3.282-2.312 5.141-2.297 1.844-6.375 1.844-3.844 0-7.235-1.906z"/><path d="M563.03 173.66v279.054"/><path stroke="#fff" stroke-linecap="butt" stroke-linejoin="round" stroke-width="4" d="M563.03 173.66v265.346"/><path fill="#fff" fill-rule="evenodd" stroke="#fff" stroke-linecap="butt" stroke-width="4" d="m563.03 439.006-4.498-4.498 4.498 12.359 4.499-12.36z"/></g></svg>