<svg xmlns="http://www.w3.org/2000/svg" fill="none" stroke-linecap="square" stroke-miterlimit="10" viewBox="0 0 1536 768"><clipPath id="a"><path d="M0 0h1536v768H0V0z"/></clipPath><g clip-path="url(#a)"><path d="M0 0h1536v768H0z"/><path d="M35.637 377.587c0-179.636 131.43-325.26 293.56-325.26 77.856 0 152.524 34.268 207.577 95.266 55.053 60.998 85.981 143.73 85.981 229.994 0 179.636-131.43 325.26-293.559 325.26-162.128 0-293.559-145.624-293.559-325.26z"/><path stroke="#fff" stroke-linecap="butt" stroke-linejoin="round" stroke-width="4" d="M35.637 377.587c0-179.636 131.43-325.26 293.56-325.26 77.856 0 152.524 34.268 207.577 95.266 55.053 60.998 85.981 143.73 85.981 229.994 0 179.636-131.43 325.26-293.559 325.26-162.128 0-293.559-145.624-293.559-325.26z"/><path fill="#fff" d="m183.947 273.082-1.265 3.218q-1.813-1.312-5.703-1.312-3.64 0-5.844 3.14-2.203 3.126-2.203 8.063 0 4.719 2.25 7.656 2.265 2.938 5.828 2.938 3.89 0 5.984-2.766l2.078 2.89q-3.28 3.266-8.453 3.266-5.422 0-8.53-3.906-3.11-3.906-3.11-10.297 0-6.203 3.312-10.297 3.328-4.093 8.594-4.093 4.516 0 7.062 1.5zm3.872 16.468q0-4.671 2.516-7.546 2.516-2.891 6.625-2.891 4.344 0 6.734 2.766 2.407 2.765 2.407 7.671 0 4.891-2.453 7.72-2.454 2.812-6.688 2.812-4.312 0-6.734-2.844-2.407-2.86-2.407-7.688zm3.766 0q0 7.61 5.375 7.61 2.516 0 3.938-2.031 1.421-2.047 1.421-5.579 0-7.515-5.359-7.515-2.453 0-3.922 2-1.453 2-1.453 5.515zm41.697 10.157V286.91q0-4.781-4.14-4.781-1.298 0-2.438.812-1.125.797-1.531 1.813v14.953h-3.594v-14.36q0-1.5-1.125-2.36-1.125-.858-2.969-.858-1.078 0-2.297.843-1.219.828-1.719 1.828v14.907h-3.593v-20.22h2.343l1.188 2.345q2.078-2.72 5.187-2.72 4.344 0 6.079 2.704.609-1.156 2.25-1.922 1.64-.781 3.375-.781 3.14 0 4.859 1.86 1.719 1.859 1.719 5.218v13.516h-3.594zm12.275-1.11v9.032h-3.594v-28.141h3.594v1.672q2.031-2.047 4.922-2.047 4.297 0 6.688 2.687 2.406 2.672 2.406 7.844 0 4.61-2.422 7.531-2.406 2.907-6.969 2.907-1.297 0-2.765-.453-1.454-.454-1.86-1.032zm0-14.75v11.782q.328.515 1.422.984 1.094.453 2.14.453 6.688 0 6.688-7.547 0-3.844-1.594-5.61-1.578-1.78-5.078-1.78-.75 0-1.843.53-1.094.532-1.735 1.188zm34.974 6.094h-14.578q0 3.563 1.953 5.469 1.703 1.656 4.406 1.656 3.079 0 5.141-1.797l1.5 2.594q-.828.828-2.547 1.422-2.14.797-4.781.797-3.813 0-6.484-2.578-2.954-2.86-2.954-7.672 0-5 3.032-8.016 2.718-2.703 6.437-2.703 4.328 0 6.781 2.437 2.375 2.344 2.375 6.204 0 1.187-.28 2.187zm-8.703-7.812q-2.406 0-4.016 1.546-1.562 1.485-1.765 3.672h11.203q0-2.172-1.36-3.625-1.5-1.593-4.062-1.593zm14.037.187h-2.344v-2.828h2.344v-4.219l3.593-1.39v5.609h5.547v2.828h-5.547v10.047q0 2.547.86 3.625.86 1.078 2.765 1.078 1.375 0 2.844-.703l.531 3.156q-2.234.563-4.89.563-2.39 0-4.047-1.782-1.656-1.78-1.656-4.5v-11.484zm17.748-10.469q.922 0 1.563.657.656.64.656 1.546 0 .938-.656 1.594-.64.64-1.563.64-.906 0-1.562-.64-.64-.656-.64-1.594 0-.921.64-1.562.64-.64 1.562-.64zm-1.969 27.86v-17.188h-2.765v-3.031h6.36v20.219h-3.595zm10.57-17.391h-2.343v-2.828h2.343v-4.219l3.594-1.39v5.609h5.547v2.828h-5.547v10.047q0 2.547.86 3.625.859 1.078 2.765 1.078 1.375 0 2.844-.703l.531 3.156q-2.234.563-4.89.563-2.391 0-4.047-1.782-1.657-1.78-1.657-4.5v-11.484zm17.749-10.469q.922 0 1.562.657.657.64.657 1.546 0 .938-.657 1.594-.64.64-1.562.64-.906 0-1.563-.64-.64-.656-.64-1.594 0-.921.64-1.562.641-.64 1.563-.64zm-1.969 27.86v-17.188h-2.766v-3.031h6.36v20.219h-3.594zm16.57.375h-.937l-8.672-20.641h3.937l5.344 14.156 5.453-14.156h3.75l-8.875 20.64zm28.682-10.141h-14.578q0 3.563 1.953 5.469 1.703 1.656 4.406 1.656 3.078 0 5.14-1.797l1.5 2.594q-.827.828-2.546 1.422-2.14.797-4.781.797-3.813 0-6.485-2.578-2.953-2.86-2.953-7.672 0-5 3.031-8.016 2.72-2.703 6.438-2.703 4.328 0 6.781 2.437 2.375 2.344 2.375 6.204 0 1.187-.281 2.187zm-8.703-7.812q-2.407 0-4.016 1.546-1.562 1.485-1.766 3.672h11.204q0-2.172-1.36-3.625-1.5-1.593-4.062-1.593zm25.193 17.578V287.94q0-3.219-.97-4.516-.968-1.296-3.25-1.296-1.234 0-2.577.75-1.328.734-2.047 1.796v15.032h-3.594v-20.22h2.453l1.14 2.61q1.766-2.984 5.782-2.984 6.656 0 6.656 8.078v12.516h-3.593zm25.715-9.766h-14.579q0 3.563 1.954 5.469 1.703 1.656 4.406 1.656 3.078 0 5.14-1.797l1.5 2.594q-.828.828-2.546 1.422-2.141.797-4.782.797-3.812 0-6.484-2.578-2.953-2.86-2.953-7.672 0-5 3.031-8.016 2.719-2.703 6.438-2.703 4.328 0 6.78 2.437 2.376 2.344 2.376 6.204 0 1.187-.281 2.187zm-8.704-7.812q-2.406 0-4.015 1.546-1.563 1.485-1.766 3.672h11.203q0-2.172-1.359-3.625-1.5-1.593-4.063-1.593zm11.443 16.375 1.25-3.407q3.016 1.969 4.844 1.969 3.313 0 3.313-2.797 0-2-3.204-3.437-2.468-1.125-3.328-1.703-.859-.594-1.5-1.344-.625-.75-.937-1.578-.313-.844-.313-1.813 0-2.484 1.813-3.875 1.812-1.406 4.734-1.406 2.203 0 5.578 1.39l-1.03 3.329q-2.126-1.703-4.282-1.703-1.281 0-2.156.609-.875.61-.875 1.531 0 1.938 2.203 2.938l2.562 1.172q2.36 1.078 3.438 2.453 1.078 1.375 1.078 3.453 0 2.719-1.906 4.265-1.907 1.532-5.282 1.532-3.187 0-6-1.578zm15.648 0 1.25-3.407q3.015 1.969 4.844 1.969 3.312 0 3.312-2.797 0-2-3.203-3.437-2.469-1.125-3.328-1.703-.86-.594-1.5-1.344-.625-.75-.938-1.578-.312-.844-.312-1.813 0-2.484 1.812-3.875 1.813-1.406 4.735-1.406 2.203 0 5.578 1.39l-1.031 3.329q-2.125-1.703-4.282-1.703-1.28 0-2.156.609-.875.61-.875 1.531 0 1.938 2.203 2.938l2.563 1.172q2.36 1.078 3.437 2.453 1.078 1.375 1.078 3.453 0 2.719-1.906 4.265-1.906 1.532-5.281 1.532-3.188 0-6-1.578zm27.293-8.954q0-4.671 2.516-7.546 2.516-2.891 6.625-2.891 4.344 0 6.734 2.766 2.407 2.765 2.407 7.671 0 4.891-2.454 7.72-2.453 2.812-6.687 2.812-4.313 0-6.734-2.844-2.407-2.86-2.407-7.688zm3.766 0q0 7.61 5.375 7.61 2.516 0 3.937-2.031 1.422-2.047 1.422-5.579 0-7.515-5.36-7.515-2.452 0-3.921 2-1.453 2-1.453 5.515zm29.228-15.14q-1.11-.375-2.047-.375-1.64 0-2.719 1.25-1.062 1.25-1.062 3.156 0 .5.094 1.047h4.125v3.031h-4.125v17.188h-3.578v-17.188h-2.938v-3.031h2.938q0-3.86 1.906-6.063 1.906-2.218 5.047-2.218 1.562 0 3.359.562l-1 2.64zm-219.66 43.64h3.781v18.938q0 2.531 1.594 4.172 1.61 1.625 4.25 1.625 2.797 0 4.39-1.578 1.61-1.594 1.61-4.313V318.05h3.781v19.235q0 4.187-2.625 6.547-2.61 2.343-7.11 2.343-4.64 0-7.156-2.296-2.515-2.313-2.515-6.61V318.05zm28.925 22.36q1.172 0 2 .828.828.828.828 2 0 1.172-.828 2.016-.828.828-2 .828-1.172 0-2.015-.828-.828-.844-.828-2.016 0-1.172.828-2 .843-.828 2.015-.828zm9.085 4.031 1.39-3.469q1.048.766 2.626 1.297 1.578.516 2.828.516 2.203 0 3.547-1.203 1.343-1.22 1.343-3.078 0-1.407-.75-2.594-.75-1.203-3.75-2.625l-2.218-1.031q-2.844-1.329-3.97-3.141-1.108-1.813-1.108-4.36 0-3.093 2.187-5.124 2.188-2.047 5.625-2.047 4.578 0 6.375 1.5l-1.11 3.28q-.765-.546-2.312-1.062-1.547-.515-2.86-.515-1.921 0-3.03 1.11-1.11 1.093-1.11 2.796 0 1.063.39 1.938.407.859 1.11 1.453.719.578 2.906 1.64l2.266 1.078q2.828 1.329 3.969 3.188 1.14 1.86 1.14 4.734 0 3.11-2.5 5.282-2.5 2.171-6.687 2.171-3.688 0-6.297-1.734zm23.701-4.031q1.172 0 2 .828.829.828.829 2 0 1.172-.829 2.016-.828.828-2 .828-1.171 0-2.015-.828-.828-.844-.828-2.016 0-1.172.828-2 .844-.828 2.015-.828zm35.55 5.297-1.906-5.828h-10.28l-2.048 5.828h-4.218l11.234-28.032h1l10.406 28.032h-4.187zm-6.906-20.782-4.28 12.172h8.202l-3.922-12.172zm14.661 20.782V318.05h3.781v27.657h-3.781zm-175.92 44.797 1.25-3.407q3.016 1.969 4.844 1.969 3.313 0 3.313-2.797 0-2-3.204-3.437-2.468-1.125-3.328-1.703-.859-.594-1.5-1.344-.625-.75-.937-1.578-.313-.844-.313-1.813 0-2.484 1.813-3.875 1.812-1.406 4.734-1.406 2.203 0 5.578 1.39l-1.03 3.329q-2.126-1.703-4.282-1.703-1.281 0-2.156.609-.875.61-.875 1.531 0 1.938 2.203 2.938l2.562 1.172q2.36 1.078 3.438 2.453 1.078 1.375 1.078 3.453 0 2.719-1.906 4.265-1.907 1.532-5.282 1.532-3.187 0-6-1.578zm33.992-8.563h-14.579q0 3.563 1.954 5.469 1.703 1.656 4.406 1.656 3.078 0 5.14-1.797l1.5 2.594q-.828.828-2.546 1.422-2.141.797-4.782.797-3.812 0-6.484-2.578-2.953-2.86-2.953-7.672 0-5 3.031-8.016 2.719-2.703 6.438-2.703 4.328 0 6.78 2.437 2.376 2.344 2.376 6.204 0 1.187-.281 2.187zm-8.704-7.812q-2.406 0-4.015 1.546-1.563 1.485-1.766 3.672h11.203q0-2.172-1.36-3.625-1.5-1.593-4.062-1.593zm36.162 17.578V378.91q0-4.781-4.14-4.781-1.297 0-2.438.812-1.125.797-1.531 1.813v14.953h-3.594v-14.36q0-1.5-1.125-2.36-1.125-.858-2.969-.858-1.078 0-2.297.843-1.218.828-1.718 1.828v14.907h-3.594v-20.22h2.344l1.187 2.345q2.078-2.72 5.188-2.72 4.343 0 6.078 2.704.61-1.156 2.25-1.922 1.64-.781 3.375-.781 3.14 0 4.86 1.86 1.718 1.859 1.718 5.218v13.516h-3.594zm12.385-27.86q.922 0 1.562.657.656.64.656 1.546 0 .938-.656 1.594-.64.64-1.562.64-.907 0-1.563-.64-.64-.656-.64-1.594 0-.921.64-1.562.64-.64 1.563-.64zm-1.97 27.86v-17.188h-2.765v-3.031h6.36v20.219h-3.594zm24.54-18.578-1.766 2.53q-.547-.546-1.938-1.03-1.39-.5-2.734-.5-2.922 0-4.64 2.046-1.72 2.047-1.72 5.625 0 3.547 1.75 5.407 1.766 1.859 4.876 1.859 2.422 0 4.875-1.875l1.406 3.031q-2.875 1.86-7.14 1.86-4.141 0-6.844-2.766-2.688-2.781-2.688-7.516 0-4.828 2.797-7.75 2.797-2.937 7.672-2.937 1.562 0 3.39.672 1.844.656 2.704 1.344zm2.576 8.421q0-4.671 2.516-7.546 2.516-2.891 6.625-2.891 4.344 0 6.734 2.766 2.407 2.765 2.407 7.671 0 4.891-2.453 7.72-2.454 2.812-6.688 2.812-4.312 0-6.734-2.844-2.407-2.86-2.407-7.688zm3.766 0q0 7.61 5.375 7.61 2.516 0 3.938-2.031 1.421-2.047 1.421-5.579 0-7.515-5.359-7.515-2.453 0-3.922 2-1.453 2-1.453 5.515zm30.728 10.157V379.94q0-3.219-.969-4.516-.968-1.296-3.25-1.296-1.234 0-2.578.75-1.328.734-2.047 1.796v15.032H324.6v-20.22h2.453l1.14 2.61q1.766-2.984 5.782-2.984 6.656 0 6.656 8.078v12.516h-3.594zm21.497-.016v-1.5q-1.86 1.875-5.438 1.875-3.781 0-6.14-2.719-2.36-2.718-2.36-7.25 0-4.547 2.719-7.765 2.719-3.22 6.469-3.22 3.125 0 4.75 1.47v-9.375h3.593v28.484h-3.593zm0-15.516q-1.36-2.046-3.72-2.046-2.874 0-4.671 2.156-1.781 2.156-1.781 5.469 0 7.312 6.64 7.312.86 0 2.047-.531 1.188-.547 1.485-1.156v-11.204zm12.13-4.687v12.89q0 4.688 4.047 4.688 1.78 0 3.25-1.016 1.468-1.03 1.937-2.359v-14.203h3.594v20.219h-3.594v-2.797q-.594 1.187-2.422 2.187-1.812.985-3.547.985-3.328 0-5.093-1.907-1.766-1.906-1.766-5.421v-13.266h3.594zm32.965 1.64-1.766 2.532q-.547-.547-1.937-1.031-1.391-.5-2.735-.5-2.922 0-4.64 2.046-1.72 2.047-1.72 5.625 0 3.547 1.75 5.407 1.767 1.859 4.876 1.859 2.422 0 4.875-1.875l1.406 3.031q-2.875 1.86-7.14 1.86-4.141 0-6.844-2.766-2.688-2.781-2.688-7.516 0-4.828 2.797-7.75 2.797-2.937 7.672-2.937 1.563 0 3.39.672 1.844.656 2.704 1.344zm5.17 1.188h-2.343v-2.828h2.343v-4.219l3.594-1.39v5.609h5.547v2.828h-5.547v10.047q0 2.547.86 3.625.859 1.078 2.765 1.078 1.375 0 2.844-.703l.531 3.156q-2.234.563-4.89.563-2.391 0-4.047-1.782-1.657-1.78-1.657-4.5v-11.484zm12.733 7.234q0-4.671 2.516-7.546 2.516-2.891 6.625-2.891 4.344 0 6.734 2.766 2.407 2.765 2.407 7.671 0 4.891-2.454 7.72-2.453 2.812-6.687 2.812-4.313 0-6.734-2.844-2.407-2.86-2.407-7.688zm3.766 0q0 7.61 5.375 7.61 2.516 0 3.937-2.031 1.422-2.047 1.422-5.579 0-7.515-5.36-7.515-2.452 0-3.921 2-1.453 2-1.453 5.515zm29.275-6.609q-1.172-.812-2.36-.812-1.906 0-3.328 1.765-1.422 1.75-1.422 4.219v11.594h-3.593v-20.22h3.593v3.235q1.954-3.61 5.829-3.61.968 0 2.78.345l-1.5 3.484zm-218.395 44.188-1.766 2.53q-.546-.546-1.937-1.03-1.39-.5-2.734-.5-2.922 0-4.641 2.046-1.719 2.047-1.719 5.625 0 3.547 1.75 5.407 1.766 1.859 4.875 1.859 2.422 0 4.875-1.875l1.406 3.031q-2.875 1.86-7.14 1.86-4.14 0-6.844-2.766-2.687-2.781-2.687-7.516 0-4.828 2.796-7.75 2.797-2.937 7.672-2.937 1.563 0 3.391.672 1.844.656 2.703 1.344zm2.577 8.421q0-4.671 2.516-7.546 2.515-2.891 6.625-2.891 4.343 0 6.734 2.766 2.406 2.765 2.406 7.671 0 4.891-2.453 7.72-2.453 2.812-6.687 2.812-4.313 0-6.735-2.844-2.406-2.86-2.406-7.688zm3.766 0q0 7.61 5.375 7.61 2.515 0 3.937-2.031 1.422-2.047 1.422-5.579 0-7.515-5.36-7.515-2.453 0-3.921 2-1.453 2-1.453 5.515zm41.696 10.157V424.91q0-4.781-4.14-4.781-1.297 0-2.438.812-1.125.797-1.53 1.813v14.953h-3.595v-14.36q0-1.5-1.125-2.36-1.125-.858-2.968-.858-1.079 0-2.297.843-1.219.828-1.719 1.828v14.907h-3.594v-20.22h2.344l1.187 2.345q2.079-2.72 5.188-2.72 4.344 0 6.078 2.704.61-1.156 2.25-1.922 1.64-.781 3.375-.781 3.14 0 4.86 1.86 1.718 1.859 1.718 5.218v13.516h-3.594zm12.276-1.11v9.032h-3.594v-28.141h3.594v1.672q2.031-2.047 4.922-2.047 4.296 0 6.687 2.687 2.406 2.672 2.406 7.844 0 4.61-2.422 7.531-2.406 2.907-6.968 2.907-1.297 0-2.766-.453-1.453-.454-1.86-1.032zm0-14.75v11.782q.328.515 1.422.984 1.093.453 2.14.453 6.688 0 6.688-7.547 0-3.844-1.594-5.61-1.578-1.78-5.078-1.78-.75 0-1.844.53-1.094.532-1.734 1.188zm29.364 13.532q-2.156 2.703-6.593 2.703-2.375 0-4.125-1.72-1.735-1.733-1.735-4.296 0-3.078 2.688-5.203 2.687-2.125 6.86-2.125 1.124 0 2.562.5 0-4.922-4.375-4.922-3.36 0-5.172 1.813l-1.516-3q1.031-.829 2.828-1.422 1.797-.594 3.438-.594 4.406 0 6.39 2 2 2 2 6.36v7.25q0 2.656 1.578 3.546v1.797q-2.187 0-3.28-.625-1.079-.625-1.548-2.062zm-.343-7.594q-1.704-.39-2.375-.39-2.72 0-4.438 1.405-1.719 1.391-1.719 3.297 0 3.157 3.72 3.157 2.718 0 4.812-2.594v-4.875zm21.669 9.922V425.94q0-3.219-.97-4.516-.968-1.296-3.25-1.296-1.234 0-2.577.75-1.328.734-2.047 1.796v15.032h-3.594v-20.22h2.453l1.14 2.61q1.766-2.984 5.782-2.984 6.656 0 6.656 8.078v12.516h-3.593zm12.386-27.86q.922 0 1.563.657.656.64.656 1.546 0 .938-.656 1.594-.64.64-1.563.64-.906 0-1.562-.64-.64-.656-.64-1.594 0-.921.64-1.562.64-.64 1.562-.64zm-1.968 27.86v-17.188h-2.766v-3.031h6.36v20.219H357.6zm26.32-9.766h-14.578q0 3.563 1.953 5.469 1.703 1.656 4.406 1.656 3.078 0 5.14-1.797l1.5 2.594q-.828.828-2.546 1.422-2.14.797-4.782.797-3.812 0-6.484-2.578-2.953-2.86-2.953-7.672 0-5 3.031-8.016 2.719-2.703 6.438-2.703 4.328 0 6.781 2.437 2.375 2.344 2.375 6.204 0 1.187-.281 2.187zm-8.703-7.812q-2.407 0-4.016 1.546-1.563 1.485-1.766 3.672h11.203q0-2.172-1.359-3.625-1.5-1.593-4.062-1.593zm11.442 16.375 1.25-3.407q3.016 1.969 4.844 1.969 3.313 0 3.313-2.797 0-2-3.203-3.437-2.47-1.125-3.329-1.703-.859-.594-1.5-1.344-.625-.75-.937-1.578-.313-.844-.313-1.813 0-2.484 1.813-3.875 1.812-1.406 4.734-1.406 2.203 0 5.578 1.39l-1.03 3.329q-2.126-1.703-4.282-1.703-1.281 0-2.156.609-.875.61-.875 1.531 0 1.938 2.203 2.938l2.562 1.172q2.36 1.078 3.438 2.453 1.078 1.375 1.078 3.453 0 2.719-1.906 4.265-1.907 1.532-5.282 1.532-3.187 0-6-1.578zm43.59.234q-2.734 1.344-6.609 1.344-3.937 0-6.093-2.328-2.141-2.329-2.141-6.594 0-2.188.64-3.797.657-1.61 2.391-3.328-2.656-2.64-2.656-5.485 0-2.89 2.172-4.937 2.187-2.047 5.844-2.047 3.89 0 6 1.719l-1.563 2.906q-2.156-1.797-3.844-1.797-5.03 0-5.03 4.531 0 2.454 2.187 4.157h7.03v-3.453l3.579-1.391v4.89h4.703v3.032h-4.703v6.219q0 2.609.703 3.562.703.938 2.422.938 1.016 0 2.39-.704l.516 3.344q-1.984.563-4.531.563-1.766 0-3.406-1.344zm-1.671-4.953v-7.625h-7.61q-1.796 2.297-1.796 4.828 0 5.89 5.765 5.89 2.563 0 3.844-.921-.203-.875-.203-2.172zm-279.287 50.469-1.265 1.828h-1.797v-28.875h3.594v9.78q.5-.702 1.906-1.28 1.406-.594 2.765-.594 4.157 0 6.735 2.875 2.578 2.86 2.578 7.25 0 5.047-2.594 7.953-2.578 2.89-7 2.89-1.437 0-2.828-.53-1.375-.547-2.094-1.297zm.532-14.532v11.657q0 .312 1.328 1 1.343.687 2.047.687 3.656 0 5.234-1.75 1.594-1.766 1.594-5.89 0-3.438-1.86-5.36-1.843-1.937-4.968-1.937-.657 0-1.844.578-1.172.562-1.531 1.015zm21.645-11.875q.922 0 1.563.657.656.64.656 1.546 0 .938-.656 1.594-.64.64-1.563.64-.906 0-1.562-.64-.64-.656-.64-1.594 0-.921.64-1.562.64-.64 1.562-.64zm-1.968 27.86v-17.188h-2.766v-3.031h6.36v20.219H169.5zm9.742-9.547v-3.313h8.078v3.313h-8.078zm14.022 3.828v-22.781h3.593v22.172q0 1.625.922 2.562.938.938 2.453.938v3.203q-6.968 0-6.968-6.094zm22.54 3.39q-2.155 2.704-6.593 2.704-2.375 0-4.125-1.72-1.734-1.733-1.734-4.296 0-3.078 2.687-5.203 2.688-2.125 6.86-2.125 1.125 0 2.562.5 0-4.922-4.375-4.922-3.36 0-5.172 1.813l-1.515-3q1.03-.829 2.828-1.422 1.797-.594 3.437-.594 4.407 0 6.39 2 2 2 2 6.36v7.25q0 2.656 1.58 3.546v1.797q-2.188 0-3.282-.625-1.078-.625-1.547-2.062zm-.343-7.593q-1.703-.39-2.375-.39-2.719 0-4.437 1.405-1.72 1.391-1.72 3.297 0 3.157 3.72 3.157 2.718 0 4.812-2.594v-4.875zm10.513-7.469h-2.344v-2.828h2.344v-4.219l3.594-1.39v5.609h5.547v2.828h-5.547v10.047q0 2.547.86 3.625.858 1.078 2.765 1.078 1.375 0 2.843-.703l.532 3.156q-2.235.563-4.89.563-2.392 0-4.048-1.782-1.656-1.78-1.656-4.5v-11.484zm31.077 7.625h-14.579q0 3.563 1.954 5.469 1.703 1.656 4.406 1.656 3.078 0 5.14-1.797l1.5 2.594q-.828.828-2.546 1.422-2.141.797-4.782.797-3.812 0-6.484-2.578-2.953-2.86-2.953-7.672 0-5 3.031-8.016 2.719-2.703 6.438-2.703 4.328 0 6.78 2.437 2.376 2.344 2.376 6.204 0 1.187-.281 2.187zm-8.704-7.812q-2.406 0-4.015 1.546-1.563 1.485-1.766 3.672h11.203q0-2.172-1.36-3.625-1.5-1.593-4.062-1.593zm23.74.812q-1.172-.812-2.36-.812-1.905 0-3.327 1.765-1.422 1.75-1.422 4.219v11.594h-3.594v-20.22h3.594v3.235q1.953-3.61 5.828-3.61.969 0 2.781.345l-1.5 3.484zm15.462 14.438q-2.156 2.703-6.593 2.703-2.375 0-4.125-1.72-1.735-1.733-1.735-4.296 0-3.078 2.688-5.203 2.687-2.125 6.859-2.125 1.125 0 2.563.5 0-4.922-4.375-4.922-3.36 0-5.172 1.813l-1.516-3q1.031-.829 2.828-1.422 1.797-.594 3.438-.594 4.406 0 6.39 2 2 2 2 6.36v7.25q0 2.656 1.578 3.546v1.797q-2.187 0-3.28-.625-1.079-.625-1.548-2.062zm-.343-7.594q-1.704-.39-2.375-.39-2.72 0-4.438 1.405-1.719 1.391-1.719 3.297 0 3.157 3.719 3.157 2.719 0 4.813-2.594v-4.875zm9.512 4.203v-22.781h3.594v22.172q0 1.625.922 2.562.937.938 2.453.938v3.203q-6.969 0-6.969-6.094zm35.578 5.703v-1.5q-1.86 1.875-5.437 1.875-3.782 0-6.141-2.719-2.36-2.718-2.36-7.25 0-4.547 2.72-7.765 2.718-3.22 6.468-3.22 3.125 0 4.75 1.47v-9.375h3.594v28.484h-3.594zm0-15.516q-1.36-2.046-3.719-2.046-2.875 0-4.672 2.156-1.78 2.156-1.78 5.469 0 7.312 6.64 7.312.86 0 2.047-.531 1.187-.547 1.484-1.156v-11.204zm25.755 5.766h-14.578q0 3.563 1.953 5.469 1.703 1.656 4.407 1.656 3.078 0 5.14-1.797l1.5 2.594q-.828.828-2.547 1.422-2.14.797-4.78.797-3.813 0-6.485-2.578-2.953-2.86-2.953-7.672 0-5 3.03-8.016 2.72-2.703 6.438-2.703 4.328 0 6.782 2.437 2.375 2.344 2.375 6.204 0 1.187-.282 2.187zm-8.703-7.812q-2.406 0-4.015 1.546-1.563 1.485-1.766 3.672h11.203q0-2.172-1.36-3.625-1.5-1.593-4.062-1.593zm24.177 15.25q-2.156 2.703-6.593 2.703-2.375 0-4.125-1.72-1.735-1.733-1.735-4.296 0-3.078 2.688-5.203 2.687-2.125 6.86-2.125 1.124 0 2.562.5 0-4.922-4.375-4.922-3.36 0-5.172 1.813l-1.516-3q1.031-.829 2.828-1.422 1.797-.594 3.438-.594 4.406 0 6.39 2 2 2 2 6.36v7.25q0 2.656 1.579 3.546v1.797q-2.188 0-3.282-.625-1.078-.625-1.547-2.062zm-.343-7.594q-1.703-.39-2.375-.39-2.719 0-4.438 1.405-1.719 1.391-1.719 3.297 0 3.157 3.72 3.157 2.718 0 4.812-2.594v-4.875zm9.512 4.203v-22.781h3.594v22.172q0 1.625.922 2.562.938.938 2.453.938v3.203q-6.969 0-6.969-6.094zm34.526 5.719V470.91q0-4.781-4.14-4.781-1.297 0-2.438.812-1.125.797-1.531 1.813v14.953h-3.594v-14.36q0-1.5-1.125-2.36-1.125-.858-2.969-.858-1.078 0-2.297.843-1.218.828-1.718 1.828v14.907h-3.594v-20.22h2.344l1.187 2.345q2.078-2.72 5.188-2.72 4.343 0 6.078 2.704.61-1.156 2.25-1.922 1.64-.781 3.375-.781 3.14 0 4.86 1.86 1.718 1.859 1.718 5.218v13.516h-3.594zm20.103-2.328q-2.156 2.703-6.593 2.703-2.375 0-4.125-1.72-1.735-1.733-1.735-4.296 0-3.078 2.688-5.203 2.687-2.125 6.86-2.125 1.124 0 2.562.5 0-4.922-4.375-4.922-3.36 0-5.172 1.813l-1.516-3q1.031-.829 2.828-1.422 1.797-.594 3.438-.594 4.406 0 6.39 2 2 2 2 6.36v7.25q0 2.656 1.579 3.546v1.797q-2.188 0-3.282-.625-1.078-.625-1.547-2.062zm-.343-7.594q-1.703-.39-2.375-.39-2.72 0-4.438 1.405-1.719 1.391-1.719 3.297 0 3.157 3.72 3.157 2.718 0 4.812-2.594v-4.875zm22.294 9.922-6.344-10.11-3.125 3.219v6.89h-3.594v-28.5h3.594v17.688l7.734-9.406h4.188l-6.469 7.687 7.906 12.532h-3.89zm10.138-27.86q.922 0 1.563.657.656.64.656 1.546 0 .938-.656 1.594-.64.64-1.563.64-.906 0-1.562-.64-.64-.656-.64-1.594 0-.921.64-1.562.64-.64 1.562-.64zm-1.968 27.86v-17.188h-2.766v-3.031h6.36v20.219h-3.594zm21.726 0V471.94q0-3.219-.969-4.516-.969-1.296-3.25-1.296-1.234 0-2.578.75-1.328.734-2.047 1.796v15.032h-3.594v-20.22h2.453l1.141 2.61q1.766-2.984 5.781-2.984 6.656 0 6.656 8.078v12.516h-3.593zm7.95 5.53 1.937-2.874q3.14 2.094 5.78 2.094 2.438 0 3.845-.844 1.406-.828 1.406-2.078 0-2.453-3.547-2.453-.61 0-2.203.312-1.578.297-2.469.297-4.297 0-4.297-3.25 0-1 1-1.812 1.016-.813 2.516-1.172-4.266-2-4.266-6.938 0-3.172 2.203-5.281 2.203-2.125 5.453-2.125 2.985 0 4.657 1.234l1.797-2.156 2.343 2.203-2.156 1.625q1.375 1.797 1.375 4.688 0 3.047-1.906 5.125t-5 2.375l-2.953.312q-.532.047-1.422.406-.89.344-.89.907 0 .78 1.859.78.812 0 2.53-.296 1.72-.297 2.548-.297 2.984 0 4.64 1.438 1.672 1.422 1.672 3.953 0 2.797-2.5 4.5-2.5 1.719-6.328 1.719-1.969 0-4.14-.704-2.157-.687-3.485-1.687zm7.608-23.233q-1.875 0-3.062 1.328-1.172 1.312-1.172 3.203 0 2.11 1.14 3.5 1.141 1.39 3.094 1.39 1.907 0 2.985-1.343 1.078-1.36 1.078-3.547 0-1.89-1.172-3.203-1.156-1.328-2.89-1.328z"/><path d="M890.49 377.587c0-179.636 131.431-325.26 293.56-325.26 77.856 0 152.524 34.268 207.577 95.266 55.053 60.998 85.981 143.73 85.981 229.994 0 179.636-131.43 325.26-293.559 325.26-162.128 0-293.559-145.624-293.559-325.26z"/><path stroke="#fff" stroke-linecap="butt" stroke-linejoin="round" stroke-width="4" d="M890.49 377.587c0-179.636 131.431-325.26 293.56-325.26 77.856 0 152.524 34.268 207.577 95.266 55.053 60.998 85.981 143.73 85.981 229.994 0 179.636-131.43 325.26-293.559 325.26-162.128 0-293.559-145.624-293.559-325.26z"/><path fill="#fff" d="m1038.8 296.082-1.265 3.218q-1.812-1.312-5.703-1.312-3.64 0-5.844 3.14-2.203 3.126-2.203 8.063 0 4.719 2.25 7.656 2.266 2.938 5.828 2.938 3.89 0 5.985-2.766l2.078 2.89q-3.281 3.266-8.453 3.266-5.422 0-8.532-3.906-3.109-3.906-3.109-10.297 0-6.203 3.312-10.297 3.329-4.093 8.594-4.093 4.516 0 7.063 1.5zm3.873 16.468q0-4.671 2.515-7.546 2.516-2.891 6.625-2.891 4.344 0 6.735 2.766 2.406 2.765 2.406 7.671 0 4.891-2.453 7.72-2.453 2.812-6.688 2.812-4.312 0-6.734-2.844-2.406-2.86-2.406-7.688zm3.765 0q0 7.61 5.375 7.61 2.516 0 3.938-2.031 1.422-2.047 1.422-5.579 0-7.515-5.36-7.515-2.453 0-3.922 2-1.453 2-1.453 5.515zm41.697 10.157V309.91q0-4.781-4.14-4.781-1.297 0-2.438.812-1.125.797-1.531 1.813v14.953h-3.594v-14.36q0-1.5-1.125-2.36-1.125-.858-2.969-.858-1.078 0-2.296.843-1.22.828-1.72 1.828v14.907h-3.593v-20.22h2.344l1.187 2.345q2.078-2.72 5.188-2.72 4.344 0 6.078 2.704.61-1.156 2.25-1.922 1.64-.781 3.375-.781 3.14 0 4.86 1.86 1.718 1.859 1.718 5.218v13.516h-3.594zm12.276-1.11v9.032h-3.594v-28.141h3.594v1.672q2.03-2.047 4.921-2.047 4.297 0 6.688 2.687 2.406 2.672 2.406 7.844 0 4.61-2.422 7.531-2.406 2.907-6.968 2.907-1.297 0-2.766-.453-1.453-.454-1.86-1.032zm0-14.75v11.782q.328.515 1.421.984 1.094.453 2.141.453 6.688 0 6.688-7.547 0-3.844-1.594-5.61-1.578-1.78-5.078-1.78-.75 0-1.844.53-1.094.532-1.734 1.188zm34.974 6.094h-14.579q0 3.563 1.954 5.469 1.703 1.656 4.406 1.656 3.078 0 5.14-1.797l1.5 2.594q-.828.828-2.546 1.422-2.141.797-4.782.797-3.812 0-6.484-2.578-2.953-2.86-2.953-7.672 0-5 3.031-8.016 2.719-2.703 6.438-2.703 4.328 0 6.78 2.437 2.376 2.344 2.376 6.204 0 1.187-.281 2.187zm-8.704-7.812q-2.406 0-4.015 1.546-1.563 1.485-1.766 3.672h11.203q0-2.172-1.36-3.625-1.5-1.593-4.062-1.593zm14.037.187h-2.344v-2.828h2.344v-4.219l3.594-1.39v5.609h5.547v2.828h-5.547v10.047q0 2.547.86 3.625.859 1.078 2.765 1.078 1.375 0 2.844-.703l.53 3.156q-2.234.563-4.89.563-2.39 0-4.047-1.782-1.656-1.78-1.656-4.5v-11.484zm17.748-10.469q.922 0 1.563.657.656.64.656 1.546 0 .938-.656 1.594-.64.64-1.563.64-.906 0-1.562-.64-.64-.656-.64-1.594 0-.921.64-1.562.64-.64 1.562-.64zm-1.968 27.86v-17.188h-2.766v-3.031h6.36v20.219h-3.594zm10.57-17.391h-2.344v-2.828h2.344v-4.219l3.593-1.39v5.609h5.547v2.828h-5.547v10.047q0 2.547.86 3.625.86 1.078 2.765 1.078 1.375 0 2.844-.703l.531 3.156q-2.234.563-4.89.563-2.39 0-4.047-1.782-1.656-1.78-1.656-4.5v-11.484zm17.748-10.469q.922 0 1.563.657.656.64.656 1.546 0 .938-.656 1.594-.64.64-1.563.64-.906 0-1.562-.64-.64-.656-.64-1.594 0-.921.64-1.562.64-.64 1.562-.64zm-1.969 27.86v-17.188h-2.765v-3.031h6.36v20.219h-3.595zm16.57.375h-.937l-8.672-20.641h3.938l5.343 14.156 5.453-14.156h3.75l-8.875 20.64zm28.682-10.141h-14.578q0 3.563 1.953 5.469 1.703 1.656 4.406 1.656 3.079 0 5.141-1.797l1.5 2.594q-.828.828-2.547 1.422-2.14.797-4.781.797-3.813 0-6.484-2.578-2.954-2.86-2.954-7.672 0-5 3.032-8.016 2.718-2.703 6.437-2.703 4.328 0 6.781 2.437 2.375 2.344 2.375 6.204 0 1.187-.28 2.187zm-8.703-7.812q-2.406 0-4.016 1.546-1.562 1.485-1.765 3.672h11.203q0-2.172-1.36-3.625-1.5-1.593-4.062-1.593zm25.193 17.578V310.94q0-3.219-.969-4.516-.969-1.296-3.25-1.296-1.234 0-2.578.75-1.328.734-2.047 1.796v15.032h-3.594v-20.22h2.454l1.14 2.61q1.766-2.984 5.781-2.984 6.657 0 6.657 8.078v12.516h-3.594zm25.715-9.766h-14.578q0 3.563 1.953 5.469 1.703 1.656 4.406 1.656 3.078 0 5.14-1.797l1.5 2.594q-.827.828-2.546 1.422-2.14.797-4.781.797-3.813 0-6.485-2.578-2.953-2.86-2.953-7.672 0-5 3.031-8.016 2.72-2.703 6.438-2.703 4.328 0 6.781 2.437 2.375 2.344 2.375 6.204 0 1.187-.281 2.187zm-8.703-7.812q-2.407 0-4.016 1.546-1.562 1.485-1.766 3.672h11.204q0-2.172-1.36-3.625-1.5-1.593-4.062-1.593zm11.443 16.375 1.25-3.407q3.015 1.969 4.843 1.969 3.313 0 3.313-2.797 0-2-3.203-3.437-2.469-1.125-3.328-1.703-.86-.594-1.5-1.344-.625-.75-.938-1.578-.312-.844-.312-1.813 0-2.484 1.812-3.875 1.813-1.406 4.734-1.406 2.204 0 5.579 1.39l-1.032 3.329q-2.125-1.703-4.28-1.703-1.282 0-2.157.609-.875.61-.875 1.531 0 1.938 2.203 2.938l2.562 1.172q2.36 1.078 3.438 2.453 1.078 1.375 1.078 3.453 0 2.719-1.906 4.265-1.906 1.532-5.281 1.532-3.188 0-6-1.578zm15.647 0 1.25-3.407q3.016 1.969 4.844 1.969 3.312 0 3.312-2.797 0-2-3.203-3.437-2.468-1.125-3.328-1.703-.86-.594-1.5-1.344-.625-.75-.937-1.578-.313-.844-.313-1.813 0-2.484 1.813-3.875 1.812-1.406 4.734-1.406 2.203 0 5.578 1.39l-1.031 3.329q-2.125-1.703-4.281-1.703-1.282 0-2.157.609-.875.61-.875 1.531 0 1.938 2.204 2.938l2.562 1.172q2.36 1.078 3.438 2.453 1.078 1.375 1.078 3.453 0 2.719-1.907 4.265-1.906 1.532-5.28 1.532-3.188 0-6-1.578zm27.294-8.954q0-4.671 2.515-7.546 2.516-2.891 6.625-2.891 4.344 0 6.735 2.766 2.406 2.765 2.406 7.671 0 4.891-2.453 7.72-2.453 2.812-6.688 2.812-4.312 0-6.734-2.844-2.406-2.86-2.406-7.688zm3.765 0q0 7.61 5.375 7.61 2.516 0 3.938-2.031 1.422-2.047 1.422-5.579 0-7.515-5.36-7.515-2.453 0-3.922 2-1.453 2-1.453 5.515zm29.228-15.14q-1.11-.375-2.047-.375-1.64 0-2.718 1.25-1.063 1.25-1.063 3.156 0 .5.094 1.047h4.125v3.031h-4.125v17.188h-3.578v-17.188h-2.938v-3.031h2.938q0-3.86 1.906-6.063 1.906-2.218 5.047-2.218 1.562 0 3.36.562l-1 2.64zm-283.486 43.64h3.781v18.938q0 2.531 1.594 4.172 1.61 1.625 4.25 1.625 2.797 0 4.39-1.578 1.61-1.594 1.61-4.313V341.05h3.781v19.235q0 4.187-2.625 6.547-2.61 2.343-7.11 2.343-4.64 0-7.156-2.296-2.515-2.313-2.515-6.61V341.05zm28.925 22.36q1.172 0 2 .828.828.828.828 2 0 1.172-.828 2.016-.828.828-2 .828-1.172 0-2.015-.828-.828-.844-.828-2.016 0-1.172.828-2 .843-.828 2.015-.828zm9.085 4.031 1.39-3.469q1.048.766 2.626 1.297 1.578.516 2.828.516 2.203 0 3.547-1.203 1.343-1.22 1.343-3.078 0-1.407-.75-2.594-.75-1.203-3.75-2.625l-2.218-1.031q-2.844-1.329-3.97-3.141-1.108-1.813-1.108-4.36 0-3.093 2.187-5.124 2.188-2.047 5.625-2.047 4.578 0 6.375 1.5l-1.11 3.28q-.765-.546-2.312-1.062-1.547-.515-2.86-.515-1.921 0-3.03 1.11-1.11 1.093-1.11 2.796 0 1.063.39 1.938.407.859 1.11 1.453.719.578 2.906 1.64l2.266 1.078q2.828 1.329 3.969 3.188 1.14 1.86 1.14 4.734 0 3.11-2.5 5.282-2.5 2.171-6.687 2.171-3.688 0-6.297-1.734zm23.701-4.031q1.172 0 2 .828.829.828.829 2 0 1.172-.829 2.016-.828.828-2 .828-1.171 0-2.015-.828-.828-.844-.828-2.016 0-1.172.828-2 .844-.828 2.015-.828zm35.55 5.297-1.905-5.828h-10.282l-2.047 5.828h-4.218l11.234-28.032h1l10.406 28.032h-4.187zm-6.905-20.782-4.282 12.172h8.203l-3.921-12.172zm14.66 20.782V341.05h3.781v27.657h-3.781zm21.749 0V341.05h3.78v24.266h12.5v3.39h-16.28zm30.714-2.328q-2.157 2.703-6.594 2.703-2.375 0-4.125-1.72-1.734-1.733-1.734-4.296 0-3.078 2.687-5.203 2.688-2.125 6.86-2.125 1.124 0 2.562.5 0-4.922-4.375-4.922-3.36 0-5.172 1.813l-1.516-3q1.032-.829 2.829-1.422 1.796-.594 3.437-.594 4.406 0 6.39 2 2 2 2 6.36v7.25q0 2.656 1.579 3.546v1.797q-2.188 0-3.281-.625-1.079-.625-1.547-2.062zm-.344-7.594q-1.703-.39-2.375-.39-2.719 0-4.438 1.405-1.718 1.391-1.718 3.297 0 3.157 3.718 3.157 2.72 0 4.813-2.594v-4.875zm12.294 8.469-1.266 1.828h-1.797v-28.875h3.594v9.78q.5-.702 1.906-1.28 1.407-.594 2.766-.594 4.156 0 6.734 2.875 2.579 2.86 2.579 7.25 0 5.047-2.594 7.953-2.578 2.89-7 2.89-1.438 0-2.828-.53-1.375-.547-2.094-1.297zm.531-14.532v11.657q0 .312 1.328 1 1.344.687 2.047.687 3.656 0 5.235-1.75 1.593-1.766 1.593-5.89 0-3.438-1.859-5.36-1.844-1.937-4.969-1.937-.656 0-1.844.578-1.171.562-1.53 1.015zm16.63 14.782 1.25-3.407q3.016 1.969 4.844 1.969 3.313 0 3.313-2.797 0-2-3.203-3.437-2.47-1.125-3.329-1.703-.859-.594-1.5-1.344-.625-.75-.937-1.578-.313-.844-.313-1.813 0-2.484 1.813-3.875 1.812-1.406 4.734-1.406 2.203 0 5.578 1.39l-1.03 3.329q-2.126-1.703-4.282-1.703-1.281 0-2.156.609-.875.61-.875 1.531 0 1.938 2.203 2.938l2.562 1.172q2.36 1.078 3.438 2.453 1.078 1.375 1.078 3.453 0 2.719-1.906 4.265-1.907 1.532-5.282 1.532-3.187 0-6-1.578zm43.59.234q-2.734 1.344-6.609 1.344-3.937 0-6.093-2.328-2.14-2.329-2.14-6.594 0-2.188.64-3.797.656-1.61 2.39-3.328-2.656-2.64-2.656-5.485 0-2.89 2.172-4.937 2.187-2.047 5.844-2.047 3.89 0 6 1.719l-1.563 2.906q-2.156-1.797-3.844-1.797-5.03 0-5.03 4.531 0 2.454 2.187 4.157h7.03v-3.453l3.578-1.391v4.89h4.703v3.032h-4.703v6.219q0 2.609.703 3.562.703.938 2.422.938 1.016 0 2.39-.704l.516 3.344q-1.984.563-4.53.563-1.767 0-3.407-1.344zm-1.671-4.953v-7.625h-7.61q-1.796 2.297-1.796 4.828 0 5.89 5.765 5.89 2.563 0 3.844-.921-.203-.875-.203-2.172zm-240.183 51.922V402.94q0-3.219-.969-4.516-.968-1.296-3.25-1.296-1.234 0-2.578.75-1.328.734-2.047 1.796v15.032h-3.593v-20.22h2.453l1.14 2.61q1.766-2.984 5.782-2.984 6.656 0 6.656 8.078v12.516h-3.594zm20.106-2.328q-2.157 2.703-6.594 2.703-2.375 0-4.125-1.72-1.735-1.733-1.735-4.296 0-3.078 2.688-5.203 2.687-2.125 6.86-2.125 1.124 0 2.562.5 0-4.922-4.375-4.922-3.36 0-5.172 1.813l-1.516-3q1.032-.829 2.828-1.422 1.797-.594 3.438-.594 4.406 0 6.39 2 2 2 2 6.36v7.25q0 2.656 1.579 3.546v1.797q-2.188 0-3.282-.625-1.078-.625-1.546-2.062zm-.344-7.594q-1.703-.39-2.375-.39-2.719 0-4.438 1.405-1.718 1.391-1.718 3.297 0 3.157 3.718 3.157 2.72 0 4.813-2.594v-4.875zm10.513-7.469h-2.344v-2.828h2.344v-4.219l3.593-1.39v5.609h5.547v2.828h-5.547v10.047q0 2.547.86 3.625.86 1.078 2.765 1.078 1.375 0 2.844-.703l.531 3.156q-2.234.563-4.89.563-2.39 0-4.047-1.782-1.656-1.78-1.656-4.5v-11.484zm17.748-10.469q.922 0 1.563.657.656.64.656 1.546 0 .938-.656 1.594-.641.64-1.563.64-.906 0-1.562-.64-.641-.656-.641-1.594 0-.921.64-1.562.641-.64 1.563-.64zm-1.969 27.86v-17.188h-2.765v-3.031h6.36v20.219h-3.595zm7.977-10.157q0-4.671 2.515-7.546 2.516-2.891 6.625-2.891 4.344 0 6.735 2.766 2.406 2.765 2.406 7.671 0 4.891-2.453 7.72-2.453 2.812-6.688 2.812-4.312 0-6.734-2.844-2.406-2.86-2.406-7.688zm3.765 0q0 7.61 5.375 7.61 2.516 0 3.938-2.031 1.422-2.047 1.422-5.579 0-7.515-5.36-7.515-2.453 0-3.922 2-1.453 2-1.453 5.515zm30.728 10.157V402.94q0-3.219-.968-4.516-.97-1.296-3.25-1.296-1.235 0-2.579.75-1.328.734-2.046 1.796v15.032h-3.594v-20.22h2.453l1.14 2.61q1.766-2.984 5.782-2.984 6.656 0 6.656 8.078v12.516h-3.594zm20.106-2.328q-2.156 2.703-6.594 2.703-2.375 0-4.125-1.72-1.734-1.733-1.734-4.296 0-3.078 2.687-5.203 2.688-2.125 6.86-2.125 1.125 0 2.562.5 0-4.922-4.375-4.922-3.36 0-5.172 1.813l-1.515-3q1.031-.829 2.828-1.422 1.797-.594 3.437-.594 4.407 0 6.391 2 2 2 2 6.36v7.25q0 2.656 1.578 3.546v1.797q-2.187 0-3.281-.625-1.078-.625-1.547-2.062zm-.344-7.594q-1.703-.39-2.375-.39-2.718 0-4.437 1.405-1.719 1.391-1.719 3.297 0 3.157 3.719 3.157 2.719 0 4.812-2.594v-4.875zm9.513 4.203v-22.781h3.594v22.172q0 1.625.922 2.562.937.938 2.453.938v3.203q-6.97 0-6.97-6.094zm21.453 4.516 1.25-3.407q3.015 1.969 4.843 1.969 3.313 0 3.313-2.797 0-2-3.203-3.437-2.469-1.125-3.328-1.703-.86-.594-1.5-1.344-.625-.75-.938-1.578-.312-.844-.312-1.813 0-2.484 1.812-3.875 1.813-1.406 4.735-1.406 2.203 0 5.578 1.39l-1.032 3.329q-2.125-1.703-4.28-1.703-1.282 0-2.157.609-.875.61-.875 1.531 0 1.938 2.203 2.938l2.563 1.172q2.359 1.078 3.437 2.453 1.078 1.375 1.078 3.453 0 2.719-1.906 4.265-1.906 1.532-5.281 1.532-3.188 0-6-1.578zm33.99-8.563h-14.577q0 3.563 1.953 5.469 1.703 1.656 4.406 1.656 3.078 0 5.14-1.797l1.5 2.594q-.827.828-2.546 1.422-2.14.797-4.781.797-3.813 0-6.485-2.578-2.953-2.86-2.953-7.672 0-5 3.031-8.016 2.72-2.703 6.438-2.703 4.328 0 6.781 2.437 2.375 2.344 2.375 6.204 0 1.187-.281 2.187zm-8.702-7.812q-2.406 0-4.016 1.546-1.562 1.485-1.765 3.672h11.203q0-2.172-1.36-3.625-1.5-1.593-4.062-1.593zm28.005-1-1.765 2.53q-.547-.546-1.938-1.03-1.39-.5-2.734-.5-2.922 0-4.641 2.046-1.719 2.047-1.719 5.625 0 3.547 1.75 5.407 1.766 1.859 4.875 1.859 2.422 0 4.875-1.875l1.407 3.031q-2.875 1.86-7.141 1.86-4.14 0-6.844-2.766-2.687-2.781-2.687-7.516 0-4.828 2.797-7.75 2.796-2.937 7.671-2.937 1.563 0 3.391.672 1.844.656 2.703 1.344zm7.296-1.641v12.89q0 4.688 4.047 4.688 1.78 0 3.25-1.016 1.468-1.03 1.937-2.359v-14.203h3.594v20.219h-3.594v-2.797q-.594 1.187-2.422 2.187-1.812.985-3.547.985-3.328 0-5.093-1.907-1.766-1.906-1.766-5.421v-13.266h3.594zm28.7 3.453q-1.173-.812-2.36-.812-1.906 0-3.328 1.765-1.422 1.75-1.422 4.219v11.594h-3.594v-20.22h3.594v3.235q1.953-3.61 5.828-3.61.969 0 2.781.345l-1.5 3.484zm7.743-11.094q.921 0 1.562.657.656.64.656 1.546 0 .938-.656 1.594-.64.64-1.562.64-.907 0-1.563-.64-.64-.656-.64-1.594 0-.921.64-1.562.64-.64 1.563-.64zm-1.97 27.86v-17.188h-2.765v-3.031h6.36v20.219h-3.594zm10.57-17.391h-2.343v-2.828h2.344v-4.219l3.594-1.39v5.609h5.546v2.828h-5.546v10.047q0 2.547.859 3.625.86 1.078 2.766 1.078 1.375 0 2.843-.703l.532 3.156q-2.235.563-4.891.563-2.39 0-4.047-1.782-1.656-1.78-1.656-4.5v-11.484zm21.765 20.828q-.703 1.922-2.938 3.203-2.234 1.282-4.984 1.282v-3.204q2.25 0 3.844-1.046 1.61-1.047 1.61-2.563 0-1.656-.595-3.266-.578-1.625-1.5-4l-5.484-14.062h3.672l5.937 15.625 5.344-15.625h3.672l-8.578 23.656zm-195.131 23.985-1.766 2.53q-.547-.546-1.937-1.03-1.39-.5-2.735-.5-2.921 0-4.64 2.046-1.719 2.047-1.719 5.625 0 3.547 1.75 5.407 1.766 1.859 4.875 1.859 2.422 0 4.875-1.875l1.406 3.031q-2.875 1.86-7.14 1.86-4.141 0-6.844-2.766-2.688-2.781-2.688-7.516 0-4.828 2.797-7.75 2.797-2.937 7.672-2.937 1.563 0 3.39.672 1.845.656 2.704 1.344zm2.577 8.421q0-4.671 2.515-7.546 2.516-2.891 6.625-2.891 4.344 0 6.735 2.766 2.406 2.765 2.406 7.671 0 4.891-2.453 7.72-2.453 2.812-6.688 2.812-4.312 0-6.734-2.844-2.406-2.86-2.406-7.688zm3.765 0q0 7.61 5.375 7.61 2.516 0 3.938-2.031 1.422-2.047 1.422-5.579 0-7.515-5.36-7.515-2.453 0-3.921 2-1.454 2-1.454 5.515zm30.729 10.157V448.94q0-3.219-.97-4.516-.968-1.296-3.25-1.296-1.234 0-2.577.75-1.328.734-2.047 1.796v15.032h-3.594v-20.22h2.453l1.14 2.61q1.766-2.984 5.782-2.984 6.656 0 6.656 8.078v12.516h-3.593zm23.933-18.578-1.765 2.53q-.547-.546-1.938-1.03-1.39-.5-2.734-.5-2.922 0-4.64 2.046-1.72 2.047-1.72 5.625 0 3.547 1.75 5.407 1.766 1.859 4.875 1.859 2.422 0 4.875-1.875l1.407 3.031q-2.875 1.86-7.141 1.86-4.14 0-6.844-2.766-2.687-2.781-2.687-7.516 0-4.828 2.797-7.75 2.797-2.937 7.672-2.937 1.562 0 3.39.672 1.844.656 2.703 1.344zm20.92 8.812h-14.577q0 3.563 1.953 5.469 1.703 1.656 4.406 1.656 3.078 0 5.14-1.797l1.5 2.594q-.827.828-2.546 1.422-2.14.797-4.781.797-3.813 0-6.485-2.578-2.953-2.86-2.953-7.672 0-5 3.031-8.016 2.72-2.703 6.438-2.703 4.328 0 6.781 2.437 2.375 2.344 2.375 6.204 0 1.187-.281 2.187zm-8.702-7.812q-2.406 0-4.016 1.546-1.562 1.485-1.765 3.672h11.203q0-2.172-1.36-3.625-1.5-1.593-4.062-1.593zm23.74.812q-1.172-.812-2.36-.812-1.906 0-3.328 1.765-1.422 1.75-1.422 4.219v11.594h-3.594v-20.22h3.594v3.235q1.953-3.61 5.828-3.61.97 0 2.782.345l-1.5 3.484zm16.477 16.766V448.94q0-3.219-.969-4.516-.968-1.296-3.25-1.296-1.234 0-2.578.75-1.328.734-2.047 1.796v15.032h-3.593v-20.22h2.453l1.14 2.61q1.766-2.984 5.782-2.984 6.656 0 6.656 8.078v12.516h-3.594zm7.372-1.203 1.25-3.407q3.015 1.969 4.843 1.969 3.313 0 3.313-2.797 0-2-3.203-3.437-2.47-1.125-3.328-1.703-.86-.594-1.5-1.344-.625-.75-.938-1.578-.312-.844-.312-1.813 0-2.484 1.812-3.875 1.813-1.406 4.734-1.406 2.204 0 5.579 1.39l-1.032 3.329q-2.125-1.703-4.28-1.703-1.282 0-2.157.609-.875.61-.875 1.531 0 1.938 2.203 2.938l2.562 1.172q2.36 1.078 3.438 2.453 1.078 1.375 1.078 3.453 0 2.719-1.906 4.265-1.906 1.532-5.281 1.532-3.188 0-6-1.578z"/><path d="M622.755 377.587h267.748"/><path stroke="#fff" stroke-linecap="butt" stroke-linejoin="round" stroke-width="4" d="M636.463 377.587h240.332"/><path fill="#fff" fill-rule="evenodd" stroke="#fff" stroke-linecap="butt" stroke-width="4" d="m636.463 377.587 4.499-4.499-12.36 4.499 12.36 4.498zm240.332 0-4.498 4.498 12.359-4.498-12.36-4.499z"/><path d="M655.24 268.492h215.59v90.834H655.24z"/><path fill="#fff" d="M697.6 303.898v30.954h-4.813v-30.954h-11.22v-4.328h27.766v4.328H697.6zm31.01 18.5h-18.609q0 4.532 2.484 6.97 2.204 2.109 5.641 2.109 3.922 0 6.547-2.282l1.937 3.297q-1.062 1.063-3.265 1.828-2.735 1.016-6.11 1.016-4.859 0-8.265-3.297-3.781-3.64-3.781-9.781 0-6.39 3.875-10.235 3.468-3.453 8.218-3.453 5.516 0 8.641 3.11 3.047 2.984 3.047 7.922 0 1.515-.36 2.796zm-11.109-9.968q-3.062 0-5.125 1.968-1.984 1.891-2.25 4.672h14.281q0-2.765-1.734-4.625-1.89-2.015-5.172-2.015zm32.154 22.422v-15q0-4.125-1.25-5.766-1.234-1.656-4.14-1.656-1.579 0-3.282.937-1.703.938-2.625 2.313v19.172h-4.578v-25.797h3.125l1.453 3.328q2.266-3.813 7.39-3.813 8.485 0 8.485 10.313v15.969h-4.578zm9.39-1.547 1.61-4.328q3.843 2.5 6.171 2.5 4.234 0 4.234-3.563 0-2.547-4.093-4.39-3.157-1.438-4.25-2.188-1.094-.75-1.907-1.688-.796-.953-1.203-2.03-.39-1.079-.39-2.298 0-3.187 2.312-4.968 2.313-1.782 6.047-1.782 2.813 0 7.11 1.782l-1.313 4.25q-2.719-2.172-5.469-2.172-1.625 0-2.75.781-1.125.766-1.125 1.937 0 2.485 2.828 3.766l3.266 1.484q3.016 1.375 4.39 3.141 1.376 1.75 1.376 4.406 0 3.47-2.438 5.438-2.437 1.953-6.75 1.953-4.062 0-7.656-2.031zm26.373-34q1.188 0 2.016.828.828.828.828 1.984 0 1.188-.828 2.016-.828.828-2.016.828-1.156 0-1.984-.828-.828-.828-.828-2.016 0-1.172.812-1.984.828-.828 2-.828zm-2.5 35.547v-21.938h-3.546v-3.86h8.124v25.798h-4.578zm10.16-12.954q0-5.984 3.22-9.656 3.218-3.672 8.468-3.672 5.531 0 8.594 3.532 3.062 3.53 3.062 9.796 0 6.235-3.14 9.844-3.126 3.594-8.516 3.594-5.516 0-8.61-3.64-3.078-3.641-3.078-9.798zm4.813 0q0 9.704 6.875 9.704 3.203 0 5.015-2.594 1.829-2.61 1.829-7.11 0-9.593-6.844-9.593-3.14 0-5.016 2.562-1.86 2.547-1.86 7.031zm39.22 12.954v-15q0-4.125-1.25-5.766-1.234-1.656-4.14-1.656-1.578 0-3.282.937-1.703.938-2.625 2.313v19.172h-4.578v-25.797h3.125l1.453 3.328q2.266-3.813 7.391-3.813 8.484 0 8.484 10.313v15.969h-4.578z"/></g></svg>