<?xml version="1.0" encoding="UTF-8" standalone="no"?>
<svg
   version="1.1"
   id="Layer_1"
   x="0px"
   y="0px"
   width="414.06326"
   viewBox="0 0 414.06326 409.63971"
   enable-background="new 0 0 1024 432"
   xml:space="preserve"
   sodipodi:docname="Logo.svg"
   height="409.63971"
   inkscape:export-filename="file.png"
   inkscape:export-xdpi="96"
   inkscape:export-ydpi="96"
   inkscape:version="1.4 (e7c3feb1, 2024-10-09)"
   xmlns:inkscape="http://www.inkscape.org/namespaces/inkscape"
   xmlns:sodipodi="http://sodipodi.sourceforge.net/DTD/sodipodi-0.dtd"
   xmlns="http://www.w3.org/2000/svg"
   xmlns:svg="http://www.w3.org/2000/svg"><defs
   id="defs37" /><sodipodi:namedview
   id="namedview37"
   pagecolor="#ffffff"
   bordercolor="#000000"
   borderopacity="0.25"
   inkscape:showpageshadow="2"
   inkscape:pageopacity="0.0"
   inkscape:pagecheckerboard="0"
   inkscape:deskcolor="#d1d1d1"
   inkscape:zoom="0.74215574"
   inkscape:cx="417.70209"
   inkscape:cy="127.33176"
   inkscape:window-width="1512"
   inkscape:window-height="728"
   inkscape:window-x="0"
   inkscape:window-y="34"
   inkscape:window-maximized="0"
   inkscape:current-layer="Layer_1"><inkscape:page
     x="0"
     y="0"
     width="414.06326"
     height="409.63971"
     id="page2"
     margin="0"
     bleed="0" /></sodipodi:namedview>
<path
   fill="#000000"
   opacity="1"
   stroke="none"
   d="m 182.87859,255.37193 c -1.15041,1.2287 -1.99718,2.28088 -3.03386,3.08954 -1.46767,1.14486 -3.07799,1.30993 -4.49271,-0.14963 -1.49443,-1.54187 -1.62524,-3.21671 -0.21739,-4.91046 1.70284,-2.04862 3.44681,-4.06348 5.13017,-6.12784 2.97641,-3.65006 2.90862,-3.98206 -1.47026,-7.54941 -2.93007,1.60001 -4.71437,4.44772 -6.84231,6.94391 -1.63716,1.92044 -3.73951,3.42499 -6.00664,1.53653 -2.59668,-2.16296 -1.08341,-4.40732 0.74095,-6.42624 2.21892,-2.45547 4.3385,-5.00076 6.40504,-7.39591 -0.73025,-2.4429 -2.11535,-3.72105 -4.08253,-4.60998 -3.29982,1.3748 -4.43405,4.87215 -6.9145,7.02161 -1.7176,1.4884 -3.55861,3.04202 -5.6857,1.2274 -2.29151,-1.95487 -1.31752,-4.20772 0.35658,-6.13957 1.08934,-1.25705 2.30055,-2.40894 3.46437,-3.60091 4.50127,-4.61012 4.46806,-5.3962 -0.67751,-10.10614 -3.19326,1.71864 -5.34723,4.67309 -7.79084,7.29816 -1.50457,1.61628 -3.08905,3.57037 -5.39672,1.45448 -2.22493,-2.04002 -1.33223,-4.19275 0.47682,-6.09962 2.62108,-2.76288 5.37357,-5.42312 7.16739,-9.09971 -1.18686,-1.43016 -2.4201,-2.76762 -3.48617,-4.22722 -4.05139,-5.54679 -4.40026,-9.96052 -0.0186,-15.49787 2.97258,-3.7566 2.61519,-6.24596 -0.72337,-9.13564 -1.49649,-1.29532 -2.68433,-2.95714 -3.95743,-4.49792 -1.36845,-1.65619 -1.39111,-3.26117 0.20717,-4.86603 1.66142,-1.66829 3.37117,-1.41838 4.84596,-0.005 1.79683,1.72237 3.41632,3.64456 4.99308,5.57776 1.82347,2.23572 3.42326,2.04599 5.3565,0.0623 1.70149,-1.74588 2.86519,-3.24237 0.62596,-5.40657 -1.91397,-1.84987 -3.80008,-3.7553 -5.47581,-5.81714 -1.54534,-1.90141 -1.62284,-4.02766 0.31723,-5.80544 2.0979,-1.92239 3.66257,-0.45706 5.0935,1.04319 2.16994,2.27505 4.27971,4.60746 6.24151,6.72793 2.89836,-0.68136 3.77975,-2.52389 5.15455,-3.88585 -1.78233,-3.48597 -4.92686,-5.35168 -6.99112,-8.13319 -1.34935,-1.81819 -2.56491,-3.82442 -0.38133,-5.73679 2.09642,-1.83604 4.08067,-0.7597 5.69054,0.94484 2.04863,2.16913 3.97459,4.45409 5.78798,6.50225 5.95877,-3.129 6.10993,-3.97998 2.23768,-8.14919 -1.35666,-1.46069 -2.73353,-2.92792 -3.88747,-4.54471 -1.24835,-1.74904 -1.80102,-3.84439 0.1823,-5.36015 1.81433,-1.38663 3.85652,-0.87758 5.42505,0.69824 1.40474,1.41124 2.61285,3.01717 3.92284,4.52406 1.44539,1.66269 2.92311,2.78687 4.97516,0.71064 1.77934,-1.80036 3.18003,-3.55065 0.96615,-5.95349 -1.57997,-1.71486 -3.24562,-3.36222 -4.69914,-5.17884 -1.4102,-1.76251 -2.47955,-3.77369 -0.32619,-5.74032 2.12998,-1.94527 3.95676,-0.9068 5.61045,0.8386 0.11453,0.1209 0.2622,0.21747 0.35247,0.35328 3.65035,5.49148 7.56154,7.67419 13.96906,3.14576 3.4658,-2.4494 8.22302,-1.32058 11.69838,1.52785 3.27717,2.68602 5.48106,1.9362 7.72589,-1.22665 1.24045,-1.74773 2.79214,-3.33002 4.42563,-4.72725 1.53625,-1.31404 3.4338,-1.46511 4.96676,0.0883 1.53223,1.55263 1.31824,3.38337 0.0363,4.97948 -1.14343,1.42372 -2.49774,2.67836 -3.76163,4.00508 -4.73034,4.96559 -4.73074,4.96521 0.54416,9.79413 2.99393,-1.68655 5.13565,-4.43079 7.54758,-6.8555 1.73758,-1.74684 3.67978,-2.49219 5.68765,-0.63638 1.9111,1.76637 1.07022,3.66147 -0.33816,5.29994 -2.3703,2.75754 -4.82294,5.44428 -7.17435,8.08595 3.39191,5.22083 3.75363,5.26749 7.7391,1.28897 1.53174,-1.52906 3.00113,-3.12924 4.62055,-4.55932 1.43802,-1.26991 3.08401,-1.33615 4.45666,0.12054 1.28339,1.36203 1.5413,2.94063 0.23188,4.49057 -1.93433,2.28963 -3.81504,4.63314 -5.87467,6.8057 -1.82003,1.91984 -1.37213,3.44214 0.27503,5.14132 1.81039,1.86756 3.22809,1.0233 4.65405,-0.42518 1.86993,-1.89952 3.69681,-3.84319 5.61142,-5.69635 1.30887,-1.26685 2.80795,-1.93633 4.3659,-0.36263 1.43497,1.44948 2.03241,3.04061 0.51264,4.84728 -1.39325,1.65625 -2.75299,3.34067 -4.13211,5.00885 -4.25452,5.1461 -4.2554,5.14538 1.54275,9.59631 2.32141,-2.43564 4.67932,-4.92311 7.05314,-7.39529 1.50512,-1.56748 3.13446,-2.67099 5.13223,-0.77248 1.81442,1.72427 1.47607,3.66299 0.0892,5.37405 -1.67365,2.06485 -3.45157,4.07648 -5.39868,5.8797 -2.01767,1.8685 -2.12576,3.63917 -0.30445,5.54833 6.25373,6.55545 5.51169,13.10039 -0.11157,19.51787 -1.74826,1.99522 -1.3125,3.37376 0.3393,5.08854 2.19116,2.27471 4.21048,4.72248 6.20553,7.17568 1.20938,1.48713 1.19147,3.17007 -0.22638,4.4966 -1.45443,1.36076 -3.11227,1.02349 -4.52624,-0.1628 -2.9198,-2.44978 -5.77472,-4.97694 -8.75434,-7.5571 -5.40487,3.9238 -5.48037,4.64085 -0.52954,10.03621 1.2371,1.34813 2.48035,2.69917 3.60636,4.13841 1.2926,1.65215 1.46185,3.4352 -0.27619,4.86841 -1.51532,1.24954 -3.19525,0.92642 -4.51867,-0.37016 -1.66074,-1.62699 -3.12571,-3.45174 -4.73557,-5.1333 -1.44897,-1.51354 -2.7348,-3.75138 -5.21533,-1.18802 -2.13556,2.20686 -2.3566,4.13191 0.0915,6.32756 1.8483,1.65765 3.47782,3.58212 5.05997,5.50683 1.38919,1.68998 2.01468,3.69538 -0.0251,5.27301 -1.8927,1.4639 -3.80255,0.78229 -5.333,-0.86694 -2.25479,-2.42978 -4.45676,-4.9086 -6.63901,-7.31985 -5.87991,3.34253 -5.97455,3.75262 -2.13507,8.34411 1.49634,1.78946 3.05807,3.52906 4.47064,5.38233 1.29837,1.7034 1.18997,3.45083 -0.48746,4.87051 -1.59997,1.3541 -3.12219,0.7572 -4.44485,-0.51471 -1.681,-1.61645 -3.46204,-3.16867 -4.90592,-4.98266 -2.2059,-2.7714 -4.09008,-2.49216 -6.57705,-0.26069 -2.7016,2.42402 -1.10169,3.97101 0.57556,5.74247 1.83148,1.93438 3.73947,3.81167 5.40729,5.88061 1.25488,1.55667 1.51098,3.46045 -0.13453,4.95355 -1.73455,1.57398 -3.46362,0.76627 -4.86001,-0.6314 -2.57541,-2.57773 -5.04895,-5.25727 -8.10486,-8.4603 -7.12649,7.03232 -14.52196,9.63901 -22.31525,-0.55563 -2.90293,3.27862 -5.34745,6.18588 -7.96035,8.93292 -1.45201,1.52655 -3.24872,2.5935 -5.16791,0.58139 -1.66911,-1.74994 -1.43724,-3.67716 -0.0194,-5.40875 1.26245,-1.54175 2.74272,-2.90473 4.12234,-4.35093 4.46476,-4.68032 4.38775,-5.22876 -1.38771,-9.40579 -2.40249,0.95883 -3.68289,3.18555 -5.55906,5.28275 M 165.1192,191.01892 c -0.68001,0.73185 -1.38222,1.44442 -2.03654,2.19855 -6.08289,7.01041 -6.04302,5.61482 -0.0133,12.28064 11.27275,12.46202 22.45824,25.01105 34.0396,37.1817 4.39721,4.62094 7.94316,10.15537 13.28334,14.0412 5.24341,-4.37884 8.96623,-9.5217 13.21094,-14.16531 11.8986,-13.01682 23.65757,-26.16197 35.63429,-39.10604 2.64709,-2.86088 2.43918,-4.76313 -0.11124,-7.53878 -11.25625,-12.25042 -22.18323,-24.8048 -33.50647,-36.99167 -5.04658,-5.43155 -9.4622,-11.49289 -15.49747,-16.54936 -14.95217,16.17442 -29.73101,32.16134 -45.00314,48.64907 z"
   id="path1" />





<path
   fill="#000000"
   opacity="1"
   stroke="none"
   d="M 56.787861,190.47326 C 37.781285,188.07719 19.093556,186.50717 -1.7549687e-7,182.64771 2.3436213,179.11173 4.5326203,179.88966 6.3690153,179.91001 c 15.8123127,0.17528 31.4867097,2.22951 47.1886517,3.77889 15.027835,1.48286 30.004865,3.49255 44.990704,5.37808 2.738209,0.34453 7.359469,-0.23915 6.908139,3.54112 -0.44157,3.69835 -4.66348,2.28522 -7.607599,1.9747 -13.529209,-1.42697 -27.069909,-2.74493 -41.06105,-4.10954 z"
   id="path7" />
<path
   fill="#000000"
   opacity="1"
   stroke="none"
   d="m 351.41454,184.82887 c 15.48401,-1.63675 30.49963,-3.40514 45.62024,-4.01377 4.64697,-0.18705 9.2803,-0.69429 13.92498,-0.96862 1.27616,-0.0754 2.91797,-0.25841 3.0908,1.63435 0.1704,1.86603 -1.40861,1.92058 -2.71436,2.20027 -9.09735,1.94862 -18.35971,2.72437 -27.57227,3.82248 -13.66028,1.62828 -27.32974,3.19786 -41.01788,4.56697 -9.5784,0.95804 -19.19089,1.59183 -28.79672,2.24432 -1.87632,0.12746 -4.68915,0.5132 -4.87427,-2.09222 -0.20291,-2.85481 2.71152,-2.89098 4.78409,-3.13152 12.36423,-1.43498 24.73743,-2.79246 37.55539,-4.26226 z"
   id="path8" />
<path
   fill="#000000"
   opacity="1"
   stroke="none"
   d="m 271.4666,109.9144 c 17.57294,-24.514768 34.90268,-48.763937 53.48804,-72.081018 0.72073,-0.904198 1.37405,-1.905399 2.25042,-2.629456 0.80011,-0.661049 1.86463,-0.724605 2.72879,0.09457 0.698,0.661706 0.73154,1.534585 0.30689,2.290352 -0.89435,1.591771 -1.84497,3.160309 -2.884,4.661187 -17.44171,25.19416 -35.33707,50.061245 -53.98703,74.376485 -1.53379,1.99971 -3.13736,6.15364 -6.33341,3.6582 -2.73602,-2.13626 0.8042,-4.62196 1.92051,-6.8166 0.59701,-1.17374 1.52517,-2.17905 2.50979,-3.55372 z"
   id="path9" />
<path
   fill="#000000"
   opacity="1"
   stroke="none"
   d="m 99.609361,241.16706 c -28.270579,9.43741 -56.198407,18.66046 -84.537919,26.57227 -0.480297,0.13406 -0.945042,0.32989 -1.429909,0.44043 -1.598972,0.36444 -3.498619,1.17215 -4.1498177,-1.16144 -0.561794,-2.01318 1.3115117,-2.43783 2.6620787,-2.93631 6.080715,-2.24438 12.137119,-4.57047 18.290821,-6.59845 23.679893,-7.80402 47.291727,-15.82471 71.241785,-22.78381 1.75135,-0.50888 3.54073,-0.89994 5.32907,-1.26398 1.40308,-0.28561 2.83666,-0.098 3.30809,1.43907 0.4746,1.54733 -0.72184,2.59877 -1.93338,3.10347 -2.75067,1.14581 -5.60498,2.04285 -8.780819,3.18875 z"
   id="path10" />
<path
   fill="#000000"
   opacity="1"
   stroke="none"
   d="m 96.784671,46.340969 c 16.752949,21.991989 32.697199,44.130251 48.192579,66.589281 1.54445,2.23852 5.32713,5.28685 2.29814,7.56713 -3.08824,2.32491 -5.06244,-2.19143 -6.63759,-4.32096 -18.60057,-25.14734 -37.12042,-50.357492 -54.506328,-76.372118 -1.0016,-1.498703 -3.32969,-3.381294 -0.80453,-5.06797 2.46328,-1.645351 3.35157,1.319809 4.50142,2.655712 2.383899,2.76965 4.502419,5.767727 6.956309,8.948925 z"
   id="path11" />
<path
   fill="#000000"
   opacity="1"
   stroke="none"
   d="m 70.493852,120.53817 c 14.9412,8.83292 29.590808,17.43985 44.174928,26.15634 1.99368,1.19156 5.60525,2.4422 3.94954,5.30919 -1.88153,3.25792 -4.77187,0.38234 -6.8474,-0.78712 -27.139468,-15.29201 -54.258755,-30.62282 -80.538551,-47.37763 -0.561611,-0.35807 -1.156689,-0.66391 -1.71571,-1.02572 -1.270634,-0.82235 -2.87698,-1.74221 -2.059559,-3.47421 1.032688,-2.18814 2.831913,-1.10467 4.264244,-0.31393 12.832676,7.08441 25.643208,14.20893 38.772508,21.51308 z"
   id="path12" />
<path
   fill="#000000"
   opacity="1"
   stroke="none"
   d="m 243.4312,21.03867 c 1.39816,-5.905045 2.70554,-11.40502 4.09222,-16.88493 0.4325,-1.709186 0.64765,-4.23438793 3.05085,-3.76404893 2.43194,0.475963 1.68325,3.05580893 1.38659,4.66386593 -1.92376,10.427457 -3.91617,20.845453 -6.10937,31.219331 -4.18948,19.81609 -8.51813,39.602818 -12.82227,59.394502 -0.38678,1.77841 -0.92337,3.53865 -1.56082,5.24362 -0.51434,1.37574 -1.12848,3.12876 -3.03738,2.64022 -1.75537,-0.44924 -1.97281,-2.24316 -1.71445,-3.71996 1.40228,-8.01485 2.72366,-16.052588 4.453,-23.999731 3.95005,-18.152176 8.12055,-36.256366 12.26163,-54.792869 z"
   id="path13" />
<path
   fill="#000000"
   opacity="1"
   stroke="none"
   d="m 170.52893,43.916531 c -2.51724,-13.25663 -4.97827,-26.12056 -7.43147,-38.985983 -0.32774,-1.718693 -1.4969,-3.98161293 0.89381,-4.74722893 2.9233,-0.936174 3.0958,1.93010193 3.50371,3.69434193 6.9984,30.268202 14.13826,60.508474 19.57886,91.109349 0.49936,2.80857 1.33575,5.84247 -0.48985,8.74003 -3.54609,-0.25338 -3.83007,-3.07927 -4.34421,-5.33408 -3.87851,-17.009602 -8.1125,-33.944744 -11.00769,-51.166447 -0.16492,-0.98098 -0.42743,-1.945545 -0.70316,-3.309982 z"
   id="path14" />
<path
   fill="#000000"
   opacity="1"
   stroke="none"
   d="m 71.051462,329.48756 c -4.775152,3.90841 -9.231504,7.64755 -13.77432,11.2785 -1.352333,1.08084 -3.075356,2.9325 -4.699532,0.90372 -1.475341,-1.8429 0.789627,-2.89945 1.875786,-3.95364 22.936526,-22.2623 46.886904,-43.40885 71.000264,-64.37394 0.98656,-0.85772 2.17638,-1.53762 3.37041,-2.08432 1.08574,-0.49713 2.37622,-0.60452 3.13247,0.5878 0.58124,0.91644 0.31847,2.01798 -0.38691,2.78479 -1.79938,1.95603 -3.59645,3.93369 -5.57088,5.70612 -18.1992,16.33719 -36.435838,32.63269 -54.947288,49.15097 z"
   id="path15" />
<path
   fill="#000000"
   opacity="1"
   stroke="none"
   d="m 146.00426,348.3155 c -6.35167,13.59653 -12.55046,26.84729 -18.77286,40.08695 -0.56287,1.19766 -1.18236,2.39199 -1.94914,3.46365 -0.71501,0.99933 -1.75903,1.60812 -3.01723,0.85135 -1.03828,-0.62451 -1.05073,-1.68915 -0.70575,-2.65259 0.72779,-2.03244 1.56037,-4.02893 2.39513,-6.02124 11.43719,-27.29657 23.53509,-54.30042 35.97926,-81.15057 0.48927,-1.05564 0.94867,-2.1424 1.58132,-3.11057 1.13372,-1.73499 2.11692,-4.51981 4.72142,-3.24872 2.34541,1.14469 0.91066,3.60288 0.21139,5.33811 -2.112,5.24096 -4.371,10.42465 -6.66141,15.59137 -4.51365,10.18182 -9.087,20.33722 -13.78213,30.85226 z"
   id="path16" />
<path
   fill="#000000"
   opacity="1"
   stroke="none"
   d="m 405.07213,267.83601 c -1.65768,1.71115 -3.26755,0.93341 -4.83359,0.47015 -30.43246,-9.00342 -60.61511,-18.7814 -90.54031,-29.34704 -2.21091,-0.78061 -6.03629,-1.35611 -5.2197,-4.24086 1.03196,-3.64568 4.57117,-1.4271 6.82883,-0.73534 30.35211,9.29999 60.52795,19.13934 90.32834,30.09769 1.6369,0.60196 3.72928,0.90509 3.43643,3.7554 z"
   id="path17" />
<path
   fill="#000000"
   opacity="1"
   stroke="none"
   d="m 286.68953,271.21586 c 9.84757,8.4823 19.5336,16.60986 28.87113,25.11984 14.63565,13.33854 29.048,26.9224 43.51681,40.44315 1.41037,1.3179 3.25952,2.41134 3.47876,4.89047 -2.08154,1.91165 -3.84274,0.8266 -5.55453,-0.66669 -17.30109,-15.09246 -34.82795,-29.92916 -51.55362,-45.67263 -6.05857,-5.70276 -12.24134,-11.27341 -18.32062,-16.95444 -1.32501,-1.23816 -2.51218,-2.64081 -3.64478,-4.06177 -0.73242,-0.91888 -1.3034,-2.05469 -0.32849,-3.16211 0.9773,-1.11014 2.12525,-0.53692 3.53534,0.0642 z"
   id="path18" />
<path
   fill="#000000"
   opacity="1"
   stroke="none"
   d="m 255.33196,317.68351 c -2.44767,-5.70547 -4.81693,-11.03473 -6.97025,-16.44986 -0.70694,-1.77792 -1.64038,-4.26105 0.85797,-5.22885 2.12323,-0.82254 3.21079,1.38092 3.95188,3.00497 6.29092,13.78617 12.63781,27.54941 18.70532,41.43427 6.60175,15.10733 12.92465,30.33652 19.36066,45.51618 0.38967,0.91912 0.72802,1.86203 1.04891,2.80786 0.48185,1.42028 1.25086,3.14904 -0.44955,4.02679 -2.19052,1.13071 -2.87933,-0.99188 -3.54944,-2.40192 -4.57614,-9.62902 -9.19201,-19.24203 -13.57309,-28.96029 -6.50302,-14.42536 -12.82239,-28.93347 -19.38241,-43.74915 z"
   id="path19" />
<path
   fill="#000000"
   opacity="1"
   stroke="none"
   d="m 325.73161,138.20356 c -8.32595,4.63289 -16.2958,9.15273 -24.3738,13.47031 -1.67475,0.89509 -4.03504,3.21873 -5.59043,0.39404 -1.36645,-2.48155 1.30063,-3.91368 3.0528,-4.95119 13.3309,-7.89358 26.66339,-15.78978 40.13687,-23.43588 13.7605,-7.809 27.67996,-15.33803 41.53595,-22.97857 1.31155,-0.72323 2.6445,-1.41661 4.00833,-2.03362 1.19314,-0.53981 2.33093,-0.38432 3.01016,0.8539 0.6019,1.09714 -0.11941,1.91014 -0.87402,2.57784 -0.61823,0.54699 -1.33057,0.99857 -2.03821,1.43193 -19.31888,11.83109 -38.75259,23.46752 -58.86765,34.67124 z"
   id="path20" />
<path
   fill="#000000"
   opacity="1"
   stroke="none"
   d="m 210.2101,373.2472 c 0.40939,11.32382 -0.5732,22.10483 -1.00938,32.90235 -0.0576,1.42517 0.32775,3.40246 -1.80262,3.48742 -2.18184,0.087 -1.87323,-1.93359 -1.99842,-3.34314 -0.33819,-3.80746 -0.83892,-7.62167 -0.84569,-11.43396 -0.0479,-26.96435 -0.001,-53.92889 0.0632,-80.89328 0.005,-2.14807 0.30153,-4.30484 0.5965,-6.43908 0.1637,-1.18445 0.69628,-2.32123 2.15085,-2.33277 1.39235,-0.011 2.1506,1.07614 2.3916,2.18869 0.34755,1.60434 0.42413,3.29108 0.42653,4.94294 0.0292,20.14025 0.0237,40.28054 0.0274,60.92083 z"
   id="path21" />
<path
   fill="#000000"
   opacity="1"
   stroke="none"
   d="m 229.6917,323.32588 c -2.39279,-12.12165 -4.72306,-23.8274 -7.05211,-35.53339 -0.0324,-0.16281 -0.0975,-0.33792 -0.0673,-0.49155 0.43881,-2.23468 -1.53944,-5.80276 1.80234,-6.36715 2.86078,-0.48313 3.0705,3.14349 3.55661,5.2026 5.49817,23.28797 10.39572,46.70209 14.2052,70.33322 0.26038,1.61515 0.9935,3.72498 -1.17697,4.25455 -2.52087,0.61505 -2.84421,-1.86288 -3.24887,-3.52457 -2.7125,-11.1379 -5.31686,-22.30215 -8.01889,-33.87371 z"
   id="path22" />
<path
   fill="#000000"
   opacity="1"
   stroke="none"
   d="m 277.57451,246.43635 c -1.33408,-1.36145 -2.47992,-2.55048 -1.08792,-4.09296 1.43622,-1.59146 3.17139,-0.81988 4.59235,-0.0368 6.70642,3.69577 13.42294,7.38391 19.99597,11.30899 14.43808,8.6217 28.80359,17.36539 43.16171,26.11996 1.44742,0.88251 4.04218,1.73499 2.89969,3.91706 -1.34403,2.56707 -3.56064,0.67086 -5.17801,-0.18872 -21.76502,-11.56757 -43.1807,-23.7479 -64.38379,-37.0275 z"
   id="path23" />
<path
   fill="#000000"
   opacity="1"
   stroke="none"
   d="m 191.6481,290.8491 c -4.39747,22.08759 -8.84901,43.73575 -14.55342,65.10458 -0.21399,0.80158 -0.49025,1.58655 -0.73555,2.37983 -0.41392,1.33862 -0.95854,2.66537 -2.69548,2.25235 -1.64242,-0.39057 -1.85209,-1.88102 -1.6486,-3.21048 0.45266,-2.95768 1.15171,-5.87665 1.67219,-8.8252 3.61095,-20.45651 8.20412,-40.70331 12.98065,-60.91095 0.34372,-1.45413 0.66884,-2.93515 1.23488,-4.30789 0.55773,-1.35257 1.2609,-3.06729 3.16597,-2.44354 1.58588,0.51925 2.10233,2.10281 1.8738,3.69949 -0.28192,1.96982 -0.76349,3.91101 -1.29444,6.26181 z"
   id="path24" />
<path
   fill="#000000"
   opacity="1"
   stroke="none"
   d="m 132.24948,243.3094 c 1.11269,-0.49665 1.85854,-0.90796 2.65702,-1.09687 1.30604,-0.30902 2.80897,-0.57937 3.58685,0.83097 0.9492,1.72094 -0.4847,2.7753 -1.56856,3.75839 -0.85443,0.77496 -1.83127,1.44015 -2.82707,2.03036 -20.17391,11.95688 -40.504019,23.63684 -61.424748,34.25119 -1.56175,0.79236 -3.67487,3.05045 -5.09218,0.26893 -1.337731,-2.62543 1.60554,-3.21982 3.13139,-4.16678 20.07077,-12.45636 40.468638,-24.35538 61.537298,-35.87619 z"
   id="path25" />
<path
   fill="#000000"
   opacity="1"
   stroke="none"
   d="m 268.57439,150.34142 c -4.82218,-1.35768 -2.46817,-3.75814 -0.87448,-5.40666 3.33972,-3.45456 6.93829,-6.67222 10.56244,-9.83613 14.6354,-12.7768 29.30374,-25.51615 44.01608,-38.20416 1.3818,-1.19166 3.22922,-3.52493 5.02093,-1.3331 1.67936,2.05439 -0.82956,3.59475 -2.17044,4.86186 -15.56918,14.7126 -31.17291,29.39192 -47.59826,43.15788 -2.77546,2.32605 -4.94016,5.46742 -8.95627,6.76031 z"
   id="path26" />
<path
   fill="#000000"
   opacity="1"
   stroke="none"
   d="m 302.19286,330.17054 c 0.84387,1.59741 1.27606,2.97861 -0.36881,3.71897 -1.81628,0.8175 -2.68856,-0.72101 -3.58108,-1.89963 -8.53626,-11.27277 -17.14154,-22.4946 -25.55979,-33.85495 -5.54544,-7.48346 -10.81982,-15.16785 -16.20605,-22.76902 -0.57688,-0.81402 -1.21066,-1.62026 -1.60675,-2.52285 -0.75604,-1.72293 -2.7045,-3.7984 -0.42996,-5.30295 2.36065,-1.56152 3.9458,0.63455 5.24108,2.39468 13.41016,18.22254 26.69928,36.53153 39.29776,55.33069 1.01862,1.51993 2.01136,3.05728 3.2136,4.90506 z"
   id="path27" />
<path
   fill="#000000"
   opacity="1"
   stroke="none"
   d="m 111.80278,113.28259 c 11.70291,9.92654 22.70708,20.09413 33.45702,30.5402 0.47783,0.46433 0.97822,0.9153 1.39322,1.43254 1.11058,1.38422 3.12195,2.90101 1.51663,4.67952 -1.74027,1.92806 -3.65479,0.39823 -5.20293,-0.96049 -8.13389,-7.13864 -16.39461,-14.14044 -24.34714,-21.47611 -9.6715,-8.92128 -19.096309,-18.11068 -28.584038,-27.22968 -1.3657,-1.31262 -3.32521,-2.3859 -2.94749,-4.81038 3.91762,-0.95817 10.354639,3.68667 24.714728,17.8244 z"
   id="path28" />
<path
   fill="#000000"
   opacity="1"
   stroke="none"
   d="m 314.88744,171.44981 c -8.65753,2.60872 -16.90332,5.20688 -25.20743,7.60292 -2.25421,0.65042 -5.6926,2.0459 -6.58093,-0.83446 -0.91727,-2.97415 2.75833,-3.59732 4.98813,-4.39105 22.08346,-7.86093 44.57284,-14.43234 67.07321,-20.96387 1.83212,-0.53183 4.41134,-1.90996 5.23898,0.5892 0.97696,2.95014 -2.27298,3.17572 -4.10339,3.81546 -13.64792,4.77004 -27.3403,9.41266 -41.40857,14.1818 z"
   id="path29" />
<path
   fill="#000000"
   opacity="1"
   stroke="none"
   d="m 239.90666,122.65513 c 8.70313,-20.61932 18.08326,-40.485608 27.63248,-60.274358 0.57861,-1.199104 1.13464,-2.409981 1.74591,-3.592255 0.84824,-1.640556 1.78159,-3.749031 4.00348,-2.771301 2.64197,1.162582 0.70853,3.199127 0.10529,4.667191 -9.04505,22.012585 -18.57343,43.814623 -28.72565,65.341343 -0.14185,0.3008 -0.29819,0.59714 -0.47412,0.87911 -1.02179,1.63742 -1.74787,4.23953 -4.25369,3.21646 -2.36142,-0.96413 -1.33344,-3.35604 -0.92447,-5.24086 0.13928,-0.64191 0.47653,-1.24086 0.89077,-2.22533 z"
   id="path30" />
<path
   fill="#000000"
   opacity="1"
   stroke="none"
   d="m 135.8402,296.28456 c 6.45924,-8.67896 12.63714,-17.12378 19.00749,-25.42087 1.39552,-1.81763 3.19539,-5.1731 5.80202,-3.23673 2.99748,2.22678 -0.13562,4.84555 -1.48887,6.78699 -6.26913,8.99423 -12.65136,17.91528 -19.21115,26.69974 -7.25522,9.71573 -14.70604,19.28689 -22.17685,28.83877 -1.25935,1.61017 -2.32032,3.7063 -5.09043,4.06232 -2.04451,-2.34372 -0.33132,-4.23434 0.91128,-6.01852 7.31143,-10.49805 14.68301,-20.9542 22.24651,-31.7117 z"
   id="path31" />
<path
   fill="#000000"
   opacity="1"
   stroke="none"
   d="m 159.33676,87.83618 c 5.38781,12.40735 10.63282,24.46498 15.83364,36.54164 0.45189,1.0493 0.746,2.20929 0.87147,3.34462 0.12955,1.17225 -0.0427,2.42268 -1.43577,2.85937 -1.30796,0.40999 -2.26117,-0.33156 -2.99071,-1.29175 -0.59894,-0.7883 -1.14465,-1.64599 -1.55287,-2.54599 -9.76346,-21.52548 -19.27643,-43.159398 -28.06459,-65.105364 -0.37108,-0.926666 -0.76029,-1.855903 -1.01332,-2.81755 -0.31731,-1.20594 -0.21744,-2.401184 1.12408,-2.940102 1.33282,-0.5354 2.2571,0.197876 2.83443,1.334313 1.35734,2.671814 2.70622,5.349945 3.97227,8.065734 3.44618,7.392327 6.84764,14.805504 10.42137,22.555079 z"
   id="path32" />
<path
   fill="#000000"
   opacity="1"
   stroke="none"
   d="m 68.717132,155.20783 c 21.58207,7.18911 43.380968,12.62081 64.927618,22.24614 -4.04576,3.0732 -6.82254,2.39061 -9.44626,1.62892 -22.39105,-6.50024 -44.347248,-14.30307 -66.249641,-22.2626 -0.469597,-0.17067 -0.959045,-0.30623 -1.398918,-0.53549 -1.310112,-0.68286 -3.099709,-1.25913 -2.57975,-3.13744 0.558967,-2.01921 2.443512,-1.42695 3.814346,-1.07869 3.544045,0.90035 7.038986,1.99396 10.932605,3.13916 z"
   id="path33" />
<path
   fill="#000000"
   opacity="1"
   stroke="none"
   d="m 86.674772,212.90391 c 12.319429,-1.29787 24.181628,-2.62166 36.054558,-3.84108 2.14967,-0.22081 5.08876,-0.19743 5.36929,2.31702 0.32994,2.95723 -2.80815,3.34211 -5.0249,3.60507 -10.70908,1.27029 -21.42694,2.49011 -32.162708,3.50555 -12.05963,1.14066 -24.133664,2.1696 -36.220738,2.94672 -2.525391,0.16235 -7.113419,1.64987 -7.297097,-1.67696 -0.194618,-3.52501 4.521454,-2.63356 7.25055,-2.99109 10.51374,-1.37739 21.049765,-2.58468 32.031045,-3.86523 z"
   id="path34" />
<path
   fill="#000000"
   opacity="1"
   stroke="none"
   d="m 331.3607,218.92835 c -13.31573,-1.39633 -26.18875,-2.67009 -39.05969,-3.96395 -0.65594,-0.066 -1.32162,-0.23568 -1.93582,-0.4768 -1.63901,-0.64338 -4.13397,-0.77143 -3.9411,-3.09903 0.22504,-2.71572 2.79968,-2.54121 4.72763,-2.37037 10.74536,0.9521 21.50452,1.8249 32.21088,3.12167 13.49478,1.63451 26.94024,3.67371 40.41531,5.47603 1.82028,0.24347 3.78516,-0.0145 3.91486,3.55008 -12.12125,1.435 -23.96659,-1.45995 -36.33207,-2.23763 z"
   id="path35" />
<path
   fill="#000000"
   opacity="1"
   stroke="none"
   d="m 204.472,88.24695 c 0.0466,-15.614347 -0.41377,-30.748418 1.72824,-45.77791 0.0496,-0.348286 1.04663,-0.561554 1.8237,-0.948257 1.85465,3.174354 2.02942,6.468593 2.04221,9.713367 0.086,21.823822 0.13936,43.64814 0.0587,65.47178 -0.01,2.58896 0.57455,6.80462 -3.09364,6.68997 -3.18158,-0.0994 -2.47658,-4.12129 -2.50055,-6.66086 -0.0881,-9.32871 -0.0493,-18.65861 -0.0587,-28.48809 z"
   id="path36" />

</svg>
